<svg width="25" height="24" viewBox="0 0 25 24" fill="none" xmlns="http://www.w3.org/2000/svg">
<g id="99 Names">
<g id="Exp-4.-S">
<g id="Group">
<path id="Vector" opacity="0.4" fill-rule="evenodd" clip-rule="evenodd" d="M4.82935 5.82753C4.82935 5.43018 4.98717 5.04908 5.26815 4.76815C5.54908 4.48717 5.93018 4.32935 6.32753 4.32935H18.6425C19.0398 4.32935 19.4209 4.48717 19.7019 4.76815C19.9828 5.04908 20.1406 5.43018 20.1406 5.82753V18.1425C20.1406 18.5398 19.9828 18.9209 19.7019 19.2019C19.4209 19.4828 19.0398 19.6406 18.6425 19.6406C15.713 19.6406 9.25694 19.6406 6.32753 19.6406C5.93018 19.6406 5.54908 19.4828 5.26815 19.2019C4.98717 18.9209 4.82935 18.5398 4.82935 18.1425V5.82753Z" fill="#8459EC"/>
<path id="Vector_2" fill-rule="evenodd" clip-rule="evenodd" d="M11.4256 2.21762C11.7066 1.9367 12.0877 1.77881 12.485 1.77881C12.8824 1.77881 13.2634 1.9367 13.5443 2.21762C15.6158 4.2891 20.1809 8.85422 22.2523 10.9256C22.5333 11.2066 22.6911 11.5877 22.6911 11.985C22.6911 12.3824 22.5333 12.7634 22.2523 13.0443C20.1809 15.1158 15.6158 19.6809 13.5443 21.7523C13.2634 22.0333 12.8824 22.1911 12.485 22.1911C12.0877 22.1911 11.7066 22.0333 11.4256 21.7523C9.35422 19.6809 4.7891 15.1158 2.71762 13.0443C2.4367 12.7634 2.27881 12.3824 2.27881 11.985C2.27881 11.5877 2.4367 11.2066 2.71762 10.9256C4.7891 8.85422 9.35422 4.2891 11.4256 2.21762Z" fill="#8459EC"/>
<g id="Group_2">
<path id="Vector_3" fill-rule="evenodd" clip-rule="evenodd" d="M11.3451 9.37433V14.0311C11.3451 14.435 11.5055 14.8223 11.7911 15.1079C12.0768 15.3935 12.4641 15.5539 12.8679 15.5539H12.8689C13.2728 15.5539 13.6601 15.3935 13.9457 15.1079C14.2313 14.8223 14.3917 14.435 14.3917 14.0311C14.3917 12.3807 14.3917 9.37433 14.3917 9.37433C14.3917 9.11593 14.1819 8.90613 13.9236 8.90613C13.6652 8.90613 13.4554 9.11593 13.4554 9.37433V14.0311C13.4554 14.1866 13.3937 14.3358 13.2836 14.4458C13.1736 14.5558 13.0245 14.6176 12.8689 14.6176C12.8686 14.6176 12.8683 14.6176 12.8679 14.6176C12.7124 14.6176 12.5632 14.5558 12.4532 14.4458C12.3433 14.3358 12.2814 14.1866 12.2814 14.0311V9.37433C12.2814 9.11593 12.0717 8.90613 11.8133 8.90613C11.5549 8.90613 11.3451 9.11593 11.3451 9.37433Z" fill="white"/>
<path id="Vector_4" fill-rule="evenodd" clip-rule="evenodd" d="M16.142 15.0857V9.37433C16.142 9.11593 15.9322 8.90613 15.6738 8.90613C15.4154 8.90613 15.2057 9.11593 15.2057 9.37433V15.0857C15.2057 15.3441 15.4154 15.5539 15.6738 15.5539C15.9322 15.5539 16.142 15.3441 16.142 15.0857Z" fill="white"/>
<path id="Vector_5" fill-rule="evenodd" clip-rule="evenodd" d="M9.28132 14.4044C9.34806 14.6684 9.48505 14.9121 9.6809 15.1079C9.96647 15.3935 10.3538 15.5539 10.7577 15.5539H10.7586C11.1625 15.5539 11.5499 15.3935 11.8354 15.1079C12.121 14.8223 12.2815 14.435 12.2815 14.0311C12.2815 12.3807 12.2815 9.37433 12.2815 9.37433C12.2815 9.11593 12.0717 8.90613 11.8133 8.90613C11.5549 8.90613 11.3451 9.11593 11.3451 9.37433V14.0311C11.3451 14.1866 11.2834 14.3358 11.1733 14.4458C11.0634 14.5558 10.9142 14.6176 10.7586 14.6176C10.7583 14.6176 10.758 14.6176 10.7577 14.6176C10.6021 14.6176 10.4529 14.5558 10.3429 14.4458C10.233 14.3358 10.1711 14.1866 10.1711 14.0311V11.247C10.1711 11.0855 10.088 10.9354 9.95096 10.8499C9.81397 10.7643 9.6426 10.7555 9.49746 10.8263C9.49746 10.8263 8.70613 11.213 7.94197 11.5863C7.5213 11.7919 7.25582 12.2206 7.25919 12.6888C7.26256 13.157 7.53418 13.5818 7.95782 13.7812L9.28132 14.4044ZM9.2348 13.3476V11.9968L8.35307 12.4276C8.256 12.475 8.19472 12.5739 8.19546 12.682C8.19627 12.7901 8.25896 12.8881 8.35671 12.9341L9.2348 13.3476Z" fill="white"/>
</g>
</g>
</g>
</g>
</svg>
