<svg width="380" height="178" viewBox="0 0 380 178" fill="none" xmlns="http://www.w3.org/2000/svg">
<g clip-path="url(#clip0_1_159)">
<rect width="380" height="178" fill="url(#paint0_radial_1_159)"/>
<circle cx="314" cy="49.75" r="41.25" fill="url(#paint1_linear_1_159)"/>
<path d="M249.015 171.325H249.062C248.754 170.693 247.801 168.313 249.801 166.37C251.459 164.759 252.369 164.624 253.688 163.083L253.776 161.662C253.476 161.555 253.258 161.225 253.258 160.834C253.258 160.609 253.331 160.404 253.45 160.25C253.409 160.358 253.386 160.478 253.386 160.604C253.386 161.081 253.712 161.468 254.113 161.468C254.325 161.468 254.516 161.36 254.648 161.188C254.535 161.489 254.281 161.698 253.985 161.698C253.923 161.698 253.864 161.689 253.807 161.671L253.892 163.04C255.23 164.62 256.141 164.744 257.814 166.369C259.813 168.312 258.861 170.692 258.553 171.324H258.599C259.03 171.324 259.396 171.671 259.532 172.154L260.005 161.866C259.809 161.858 259.631 161.718 259.54 161.498L258.609 159.248C258.421 158.792 258.684 158.249 259.092 158.249H260.108L260.48 152.634H260.407C260.18 152.634 259.971 152.477 259.863 152.225L259.349 151.025C259.128 150.507 259.426 149.88 259.893 149.88H260.559L260.887 145.063H260.879C260.731 145.063 260.6 144.946 260.55 144.772L260.327 143.979C260.246 143.694 260.414 143.395 260.655 143.395H260.935L261.009 140.773H260.977C260.884 140.773 260.8 140.704 260.763 140.596L260.592 140.11C260.53 139.931 260.62 139.733 260.766 139.701C260.759 139.672 260.755 139.642 260.755 139.61C260.755 139.514 260.792 139.429 260.848 139.374C260.781 139.22 260.439 138.338 261.048 137.626C261.509 137.087 261.769 137.025 262.127 136.541L262.2 135.367C261.927 135.269 261.727 134.967 261.727 134.61C261.727 134.404 261.794 134.216 261.903 134.076C261.865 134.175 261.844 134.284 261.844 134.4C261.844 134.836 262.142 135.19 262.509 135.19C262.702 135.19 262.876 135.091 262.998 134.934C262.894 135.208 262.661 135.4 262.392 135.4C262.335 135.4 262.28 135.391 262.229 135.376L262.303 136.578C262.647 137.028 262.906 137.102 263.354 137.626C263.963 138.338 263.621 139.22 263.554 139.374C263.61 139.429 263.647 139.514 263.647 139.61C263.647 139.642 263.643 139.673 263.636 139.701C263.782 139.733 263.873 139.931 263.81 140.11L263.64 140.596C263.602 140.704 263.518 140.773 263.425 140.773H263.393L263.467 143.395H263.747C263.988 143.395 264.156 143.694 264.076 143.979L263.853 144.772C263.803 144.947 263.672 145.063 263.524 145.063H263.515L263.844 149.88H264.509C264.977 149.88 265.275 150.507 265.053 151.025L264.54 152.225C264.432 152.477 264.223 152.634 263.996 152.634H263.922L264.295 158.249H265.311C265.719 158.249 265.982 158.792 265.794 159.248L264.864 161.498C264.772 161.718 264.594 161.858 264.398 161.866L264.78 168.938C264.975 168.604 265.288 168.387 265.642 168.387H265.655C265.334 167.681 264.339 165.023 266.427 162.853C268.161 161.052 269.111 160.902 270.491 159.174L270.581 157.733C270.281 157.626 270.063 157.296 270.063 156.905C270.063 156.68 270.136 156.475 270.255 156.321C270.214 156.429 270.191 156.549 270.191 156.675C270.191 157.152 270.517 157.539 270.918 157.539C271.13 157.539 271.321 157.431 271.453 157.26C271.34 157.56 271.086 157.769 270.79 157.769C270.728 157.769 270.669 157.76 270.612 157.743L270.698 159.133C271.863 160.604 272.719 160.946 273.983 162.069V153.09H273.948C273.759 153.09 273.607 152.898 273.607 152.661V152.589C273.607 152.352 273.759 152.16 273.948 152.16H273.983C273.936 152.158 273.894 152.134 273.864 152.096C273.834 152.057 273.815 152.004 273.815 151.945V151.909C273.815 151.791 273.89 151.696 273.983 151.695V145.818C273.89 145.816 273.815 145.721 273.815 145.603V145.567C273.815 145.45 273.89 145.355 273.983 145.353V144.713H274.318C273.389 142.698 274.698 141.915 274.99 141.748C275.189 141.635 275.639 141.356 275.916 141.065C275.929 140.959 275.975 140.87 276.038 140.818C276.028 140.789 276.021 140.757 276.021 140.722C276.021 140.644 276.052 140.576 276.098 140.541C276.077 140.513 276.063 140.474 276.063 140.431C276.063 140.368 276.092 140.314 276.132 140.292L276.166 139.807C275.732 139.799 275.383 139.305 275.383 138.696C275.383 138.406 275.462 138.142 275.592 137.945C275.547 138.084 275.522 138.238 275.522 138.401C275.522 139.014 275.878 139.511 276.317 139.511C276.549 139.511 276.758 139.373 276.903 139.152C276.778 139.538 276.5 139.807 276.178 139.807H276.168L276.203 140.29C276.246 140.309 276.277 140.364 276.277 140.431C276.277 140.474 276.264 140.513 276.243 140.541C276.288 140.576 276.319 140.644 276.319 140.722C276.319 140.757 276.313 140.789 276.302 140.818C276.375 140.879 276.425 140.988 276.429 141.114C276.707 141.388 277.118 141.641 277.305 141.748C277.598 141.915 278.907 142.699 277.978 144.713H278.313V145.353C278.405 145.357 278.478 145.451 278.478 145.568V145.604C278.478 145.72 278.405 145.815 278.313 145.818V151.695C278.405 151.699 278.478 151.793 278.478 151.909V151.945C278.478 152.062 278.405 152.156 278.313 152.16H278.345C278.534 152.16 278.687 152.352 278.687 152.589V152.661C278.687 152.898 278.534 153.09 278.345 153.09H278.313V163.313H278.757C278.711 163.136 278.686 162.948 278.686 162.753V162.595C278.686 161.595 279.331 160.784 280.126 160.784H280.348C279.853 159.83 278.324 156.232 281.535 153.296C284.227 150.834 285.691 150.651 287.846 148.25L287.935 146.822C287.635 146.715 287.417 146.385 287.417 145.994C287.417 145.769 287.489 145.563 287.609 145.409C287.568 145.518 287.545 145.637 287.545 145.764C287.545 146.241 287.87 146.628 288.272 146.628C288.483 146.628 288.674 146.52 288.807 146.348C288.693 146.649 288.439 146.858 288.143 146.858C288.082 146.858 288.022 146.849 287.965 146.831L288.05 148.201C290.229 150.648 291.696 150.817 294.406 153.295C297.617 156.231 296.087 159.829 295.593 160.784H295.815C296.61 160.784 297.254 161.594 297.254 162.595V162.752C297.254 162.948 297.23 163.136 297.184 163.312H297.545V150.014H297.517C297.365 150.014 297.242 149.859 297.242 149.668V149.609C297.242 149.419 297.365 149.264 297.517 149.264H297.545C297.47 149.262 297.41 149.185 297.41 149.091V149.062C297.41 148.967 297.47 148.891 297.545 148.889V144.157C297.47 144.155 297.41 144.079 297.41 143.984V143.955C297.41 143.861 297.47 143.784 297.545 143.783V143.267H297.815C297.067 141.645 298.121 141.013 298.356 140.88C298.517 140.788 298.879 140.565 299.101 140.329C299.112 140.244 299.149 140.172 299.201 140.13C299.192 140.107 299.187 140.081 299.187 140.053C299.187 139.99 299.212 139.936 299.249 139.908C299.231 139.886 299.22 139.855 299.22 139.819C299.22 139.768 299.243 139.724 299.276 139.707L299.304 139.316C298.954 139.31 298.672 138.912 298.672 138.422C298.672 138.189 298.736 137.976 298.841 137.817C298.805 137.929 298.785 138.053 298.785 138.184C298.785 138.678 299.072 139.079 299.425 139.079C299.612 139.079 299.78 138.967 299.897 138.789C299.797 139.1 299.573 139.317 299.313 139.317H299.305L299.332 139.705C299.367 139.721 299.392 139.766 299.392 139.819C299.392 139.855 299.381 139.886 299.364 139.908C299.401 139.937 299.426 139.991 299.426 140.053C299.426 140.081 299.421 140.107 299.412 140.13C299.471 140.179 299.512 140.267 299.515 140.369C299.738 140.589 300.069 140.794 300.22 140.879C300.456 141.013 301.51 141.645 300.762 143.266H301.032V143.783C301.106 143.786 301.165 143.861 301.165 143.955V143.984C301.165 144.077 301.106 144.153 301.032 144.156V148.889C301.106 148.892 301.165 148.968 301.165 149.062V149.09C301.165 149.184 301.106 149.26 301.032 149.263V149.263H301.058C301.209 149.263 301.333 149.418 301.333 149.609V149.667C301.333 149.858 301.209 150.013 301.058 150.013H301.032V167.785H301.246V167.784C301.246 167.16 301.648 166.654 302.144 166.654H302.186C301.906 166.079 301.04 163.916 302.858 162.15C304.362 160.689 305.189 160.563 306.382 159.171L306.474 157.695C306.174 157.588 305.956 157.258 305.956 156.867C305.956 156.642 306.028 156.436 306.148 156.282C306.107 156.391 306.084 156.51 306.084 156.637C306.084 157.114 306.409 157.501 306.811 157.501C307.023 157.501 307.214 157.393 307.346 157.221C307.232 157.522 306.978 157.731 306.683 157.731C306.621 157.731 306.561 157.722 306.504 157.704L306.594 159.142C307.229 159.888 307.759 160.274 308.339 160.686L308.583 154.316C308.369 154.307 308.174 154.154 308.074 153.913L307.056 151.45C306.85 150.952 307.138 150.357 307.584 150.357H308.696L309.104 140.124H309.024C308.775 140.124 308.547 139.952 308.429 139.676L307.866 138.363C307.624 137.797 307.95 137.11 308.462 137.11H309.19L309.55 126.694H309.54C309.379 126.694 309.235 126.566 309.181 126.375L308.937 125.507C308.849 125.195 309.033 124.868 309.296 124.868H309.602L309.683 121.999H309.648C309.546 121.999 309.454 121.923 309.413 121.806L309.226 121.274C309.158 121.078 309.257 120.861 309.417 120.826C309.409 120.795 309.405 120.762 309.405 120.727C309.405 120.675 309.415 120.625 309.432 120.581C309.45 120.537 309.476 120.498 309.507 120.469C309.433 120.3 309.059 119.335 309.725 118.556C310.229 117.966 310.513 117.897 310.906 117.368L310.986 116.083C310.687 115.976 310.468 115.646 310.468 115.254C310.468 115.029 310.541 114.824 310.66 114.67C310.619 114.778 310.596 114.898 310.596 115.025C310.596 115.502 310.922 115.889 311.323 115.889C311.535 115.889 311.726 115.78 311.859 115.609C311.745 115.909 311.491 116.118 311.195 116.118C311.134 116.118 311.074 116.109 311.017 116.092L311.099 117.408C311.476 117.9 311.758 117.981 312.249 118.555C312.915 119.334 312.54 120.299 312.467 120.468C312.529 120.528 312.569 120.622 312.569 120.727C312.569 120.761 312.564 120.794 312.557 120.825C312.717 120.86 312.816 121.078 312.747 121.273L312.561 121.806C312.52 121.923 312.428 121.998 312.326 121.998H312.291L312.372 124.867H312.678C312.941 124.867 313.125 125.194 313.037 125.507L312.793 126.374C312.739 126.565 312.595 126.693 312.433 126.693H312.424L312.784 137.109H313.512C314.023 137.109 314.35 137.796 314.108 138.362L313.545 139.675C313.427 139.951 313.198 140.123 312.949 140.123H312.869L313.278 150.356H314.39C314.836 150.356 315.123 150.952 314.917 151.449L313.899 153.913C313.8 154.153 313.605 154.307 313.39 154.315L313.709 163.31H313.878V163.289C313.878 162.537 314.362 161.927 314.96 161.927H315.011C314.674 161.235 313.63 158.628 315.821 156.5C317.645 154.727 318.642 154.584 320.097 152.876L320.184 151.474C319.884 151.368 319.666 151.038 319.666 150.647C319.666 150.421 319.738 150.216 319.858 150.062C319.817 150.17 319.794 150.29 319.794 150.416C319.794 150.894 320.119 151.28 320.521 151.28C320.733 151.28 320.923 151.172 321.056 151.001C320.942 151.301 320.688 151.51 320.393 151.51C320.331 151.51 320.271 151.501 320.214 151.484L320.299 152.848C321.124 153.823 321.801 154.293 322.561 154.833V135.895H322.527C322.337 135.895 322.183 135.701 322.183 135.463V135.39C322.183 135.151 322.337 134.958 322.527 134.958H322.561C322.515 134.956 322.472 134.932 322.442 134.893C322.411 134.854 322.392 134.801 322.392 134.742V134.705C322.392 134.587 322.468 134.491 322.561 134.489V128.574C322.468 128.572 322.392 128.476 322.392 128.358V128.322C322.392 128.203 322.468 128.108 322.561 128.106V127.461H322.899C321.964 125.433 323.282 124.645 323.576 124.477C323.776 124.363 324.229 124.083 324.507 123.789C324.521 123.683 324.567 123.594 324.631 123.541C324.62 123.512 324.614 123.479 324.614 123.444C324.614 123.366 324.645 123.297 324.691 123.261C324.67 123.234 324.656 123.195 324.656 123.151C324.656 123.088 324.685 123.033 324.726 123.011L324.76 122.523C324.323 122.515 323.971 122.017 323.971 121.405C323.971 121.114 324.051 120.848 324.182 120.649C324.137 120.789 324.112 120.944 324.112 121.108C324.112 121.725 324.47 122.225 324.912 122.225C325.145 122.225 325.355 122.086 325.502 121.864C325.376 122.253 325.096 122.523 324.772 122.523C324.769 122.523 324.765 122.523 324.762 122.523L324.796 123.009C324.84 123.029 324.871 123.085 324.871 123.152C324.871 123.196 324.858 123.235 324.836 123.262C324.882 123.298 324.913 123.366 324.913 123.445C324.913 123.48 324.907 123.512 324.896 123.541C324.97 123.603 325.02 123.713 325.024 123.84C325.304 124.115 325.718 124.371 325.906 124.478C326.201 124.645 327.518 125.434 326.583 127.462H326.921V128.107C327.013 128.11 327.087 128.205 327.087 128.322V128.359C327.087 128.476 327.013 128.571 326.921 128.574V134.49C327.013 134.494 327.087 134.589 327.087 134.706V134.742C327.087 134.859 327.013 134.954 326.921 134.958H326.953C327.143 134.958 327.297 135.152 327.297 135.391V135.463C327.297 135.702 327.143 135.895 326.953 135.895H326.921V155.814C327.168 155.484 327.518 155.278 327.907 155.278H327.971C327.549 154.413 326.245 151.153 328.983 148.493C331.274 146.266 332.522 146.097 334.356 143.93L334.443 142.528C334.143 142.421 333.925 142.091 333.925 141.7C333.925 141.474 333.998 141.269 334.117 141.115C334.076 141.223 334.053 141.343 334.053 141.469C334.053 141.947 334.378 142.333 334.78 142.333C334.992 142.333 335.183 142.226 335.315 142.054C335.201 142.354 334.948 142.563 334.652 142.563C334.59 142.563 334.531 142.554 334.474 142.537L334.558 143.902C336.405 146.095 337.654 146.256 339.956 148.492C340.188 148.718 340.392 148.948 340.569 149.181C339.766 146.91 339.351 143.155 343.317 139.942C347.792 136.318 350.212 136.071 353.811 132.491L353.908 130.926C353.608 130.819 353.39 130.489 353.39 130.098C353.39 129.873 353.462 129.667 353.582 129.513C353.541 129.622 353.518 129.741 353.518 129.868C353.518 130.345 353.843 130.732 354.245 130.732C354.456 130.732 354.647 130.624 354.78 130.452C354.666 130.753 354.412 130.962 354.116 130.962C354.055 130.962 353.995 130.953 353.938 130.935L354.033 132.451C357.652 136.069 360.073 136.304 364.563 139.941C369.107 143.622 367.901 148.012 366.95 150.071C367.451 150.085 367.855 150.6 367.855 151.234C367.855 151.556 367.751 151.847 367.584 152.057C367.417 152.268 367.185 152.398 366.93 152.398H369.408L369.655 143.71C369.439 143.702 369.243 143.548 369.143 143.306L368.119 140.828C367.912 140.327 368.201 139.728 368.65 139.728H369.768L370.179 125.279H370.098C369.848 125.279 369.618 125.106 369.499 124.829L368.934 123.508C368.69 122.938 369.018 122.247 369.532 122.247H370.265L370.627 109.503H370.617C370.455 109.503 370.31 109.374 370.256 109.182L370.01 108.309C369.922 107.995 370.107 107.666 370.372 107.666H370.679L370.761 104.78H370.726C370.623 104.78 370.53 104.704 370.489 104.586L370.302 104.051C370.233 103.854 370.332 103.635 370.493 103.6C370.485 103.569 370.481 103.536 370.481 103.501C370.481 103.394 370.521 103.3 370.583 103.241C370.509 103.071 370.133 102.1 370.803 101.316C371.31 100.723 371.596 100.654 371.991 100.121L372.071 98.8285C371.77 98.7211 371.55 98.389 371.55 97.9961C371.55 97.7692 371.623 97.563 371.743 97.4079C371.702 97.5164 371.679 97.6374 371.679 97.7643C371.679 98.2444 372.006 98.6336 372.41 98.6336C372.623 98.6336 372.814 98.525 372.948 98.3526C372.834 98.655 372.578 98.8653 372.281 98.8653C372.219 98.8653 372.159 98.8559 372.102 98.8386L372.184 100.163C372.563 100.658 372.848 100.739 373.341 101.316C374.011 102.1 373.635 103.07 373.56 103.24C373.623 103.3 373.663 103.394 373.663 103.5C373.663 103.535 373.658 103.569 373.651 103.6C373.812 103.635 373.911 103.853 373.842 104.051L373.655 104.586C373.613 104.704 373.521 104.78 373.418 104.78H373.383L373.465 107.666H373.772C374.037 107.666 374.222 107.995 374.133 108.309L373.888 109.181C373.834 109.374 373.689 109.502 373.526 109.502H373.517L373.879 122.247H374.611C375.126 122.247 375.454 122.937 375.21 123.507L374.644 124.829C374.526 125.105 374.296 125.278 374.046 125.278H373.965L374.376 139.728H375.494C375.943 139.728 376.232 140.327 376.025 140.828L375.001 143.305C374.901 143.547 374.705 143.701 374.489 143.71L374.89 157.853H375.182C375.066 157.602 374.999 157.31 374.999 156.998V156.978C374.999 156.038 375.605 155.276 376.352 155.276H376.416C375.994 154.411 374.69 151.152 377.428 148.491C379.706 146.278 380.952 146.098 382.767 143.968L382.859 142.489C382.559 142.383 382.341 142.052 382.341 141.661C382.341 141.436 382.414 141.231 382.533 141.077C382.492 141.185 382.469 141.305 382.469 141.431C382.469 141.909 382.794 142.295 383.196 142.295C383.407 142.295 383.598 142.187 383.731 142.016C383.617 142.316 383.363 142.525 383.067 142.525C383.006 142.525 382.946 142.516 382.889 142.499L382.974 143.865C384.836 146.091 386.087 146.242 388.4 148.49C391.138 151.15 389.834 154.41 389.412 155.275H389.476C390.223 155.275 390.829 156.037 390.829 156.977V156.997C390.829 157.309 390.762 157.601 390.646 157.852H392.9V178H248.027V172.56C248.027 171.874 248.47 171.318 249.015 171.318V171.325ZM341.03 155.283C341.063 155.283 341.096 155.285 341.129 155.288V154.919C341.068 155.066 341.012 155.188 340.966 155.283H341.03ZM325.875 134.05L326.708 133.943V129.433L326.581 129.257C326.401 129.008 326.197 128.981 326.011 129.188L325.875 129.339V134.05L325.875 134.05ZM323.943 134.05H325.534V129.339L325.284 129.172C324.935 128.94 324.544 128.939 324.195 129.172L323.943 129.339V134.05ZM322.768 133.943L323.602 134.05V129.339L323.467 129.189C323.28 128.982 323.076 129.009 322.896 129.257L322.768 129.433V133.943V133.943ZM300.196 148.536L300.863 148.45V144.843L300.761 144.701C300.617 144.502 300.453 144.481 300.305 144.647L300.196 144.767V148.536V148.536ZM298.65 148.536H299.923V144.768L299.723 144.634C299.443 144.448 299.131 144.447 298.852 144.633L298.65 144.768V148.536ZM297.71 148.45L298.378 148.536V144.768L298.269 144.647C298.12 144.482 297.956 144.503 297.813 144.702L297.71 144.843V148.451V148.45ZM277.275 151.254L278.102 151.148V146.668L277.976 146.492C277.797 146.246 277.594 146.219 277.409 146.425L277.275 146.574V151.254ZM275.355 151.254H276.936V146.574L276.688 146.408C276.34 146.177 275.953 146.177 275.606 146.408L275.355 146.574V151.254L275.355 151.254ZM274.188 151.148L275.016 151.254V146.574L274.882 146.425C274.697 146.219 274.494 146.246 274.315 146.492L274.188 146.668V151.148Z" fill="url(#paint2_linear_1_159)"/>
<rect x="18" y="136" width="24" height="24" rx="12" fill="#D0E4A3"/>
<rect x="168" y="136" width="24" height="24" rx="12" fill="#D0E4A3"/>
<path fill-rule="evenodd" clip-rule="evenodd" d="M278.241 54.0129L278.767 53.75H281.397L281.922 54.0129L284.026 56.1164H284.552L284.815 55.8534H285.603V56.3793H285.866L286.129 56.1164H286.392L286.655 55.8534H286.918L287.181 55.5905H287.444L287.707 55.3276H287.97L288.496 55.0647H290.599L290.862 55.3276H291.125L292.177 56.3793V56.9052H291.914L291.651 56.6422H291.388L291.125 56.3793H288.496L288.233 56.6422H287.707L287.444 56.9052H286.918L286.392 57.1681H285.866L285.341 57.431H285.078L282.974 59.5345H282.448L282.185 59.2716L283.237 58.2198V57.431L282.974 57.1681L282.711 56.6422L281.659 55.5905H281.397L280.871 55.3276H279.556L275.349 55.0647H275.612L275.875 54.8017H276.138L276.401 54.5388H276.664L276.927 54.2759H277.19L277.716 54.0129H278.241ZM292.177 56.9052H292.44V57.1681H292.177V56.9052ZM314 60.5862L314.263 60.3233H314.789L315.052 60.8491L315.578 61.375H315.841L316.103 61.6379H316.366L317.155 62.4267V62.6897L317.418 63.2155V63.7414H317.155L315.841 62.4267H315.578L315.052 62.1638H314.789L314.526 61.9009H314L313.737 62.1638V62.4267L313.474 62.6897L312.948 62.1638V61.6379H310.845L310.582 61.9009L310.056 62.1638L309.793 62.4267H309.53L309.267 62.6897H308.741L308.216 62.4267H308.478L308.741 62.1638H309.004L309.267 61.9009H309.53L310.582 60.8491L311.897 60.5862H314ZM253 62.6897L253.789 62.4267H257.733L257.996 62.6897H258.259L260.362 64.7931H260.625L261.414 64.0043H261.677L262.203 64.7931L262.466 64.5302H262.728L262.991 64.2672H263.254L263.517 64.0043L264.043 63.7414L264.306 63.4784H264.569L264.832 63.2155H265.095L265.358 62.9526H265.621L266.147 62.6897H266.409L266.672 62.4267H267.987L268.513 62.6897L269.039 63.2155L267.461 63.4784H267.198L266.935 63.7414H266.672L266.409 64.0043H266.147L265.884 64.2672L265.358 64.5302L265.095 64.7931H264.832L264.569 65.056H264.306L264.043 65.319H263.78L263.517 65.5819H263.254L262.991 65.8448H262.728L262.203 66.1078H261.94L261.414 66.6336V66.8966L260.099 68.2112L259.31 67.9483L259.573 67.6853V67.4224L259.836 66.6336V66.3707L257.47 64.0043H257.207L255.366 63.7414H255.103L254.578 63.4784H254.315L254.052 63.2155H253.789L253.526 62.9526H253.263L253 62.6897ZM317.418 63.7414H317.681V64.0043H317.418V63.7414ZM317.681 64.0043H317.944V64.2672H317.681V64.0043ZM293.754 68.4741L295.069 68.2112H295.595L296.121 68.4741H296.384L298.224 70.3147L298.487 70.8405L299.539 71.8922H300.065L300.328 72.4181H300.853L301.379 72.1552H301.642L302.168 71.8922H302.431L302.957 71.6293H306.375L306.901 71.8922H307.164L307.69 72.1552H307.953L308.216 72.4181H308.478L308.741 72.681V72.944H307.69L304.009 73.2069H302.694L301.905 73.4698H301.642L301.116 73.7328H300.853L300.591 73.9957V74.5216H298.75L298.224 74.2586H297.961V73.7328L298.224 72.944L297.961 72.4181L297.698 72.1552V71.8922L297.435 71.6293V71.3664L296.121 70.0517H295.858L295.332 69.7888H295.069L294.543 69.5259H294.017L292.703 69.2629H291.651V69H291.914L292.177 68.7371H292.703L293.228 68.4741H293.754ZM331.616 68.4741V68.2112H331.879V69.2629L331.616 69.7888V70.0517L330.828 70.8405H330.565L330.302 71.1034H329.776L329.25 71.3664H328.724L328.461 71.6293H328.198L327.935 71.8922H327.672L326.621 72.944V73.2069L327.409 73.9957L326.358 74.2586L325.832 74.5216L325.569 74.7845H324.78V73.7328L324.517 73.4698H322.94L322.414 73.7328H322.151L321.625 73.9957H321.362L320.836 74.2586H318.47L318.207 73.9957H317.944L317.681 73.7328H317.418L320.047 73.2069H320.31L320.573 72.944H320.836L321.099 72.681H321.362L321.625 72.4181H321.888L322.151 72.1552H323.991L324.254 72.4181H324.517L324.78 72.681H325.306L325.569 72.1552L325.832 71.8922V71.6293L326.358 71.1034H326.621L326.884 70.8405H327.147L327.409 70.5776H327.935L328.724 70.3147H329.25L330.039 70.0517H330.302L330.828 69.7888L331.353 69.2629V69L331.616 68.4741ZM363.957 68.7371L364.483 68.4741H366.849L367.638 68.7371H367.901V69L367.638 69.2629H367.375L367.112 69.5259V69.7888H367.375L368.953 71.3664V71.8922H368.427L366.849 70.3147H366.586L366.06 70.0517H365.272L364.746 70.5776V70.8405L364.483 71.3664L364.22 71.6293V71.8922L363.957 72.1552V75.3103H363.694L363.431 75.0474V74.7845L362.905 74.2586V73.9957L362.642 73.7328V73.4698L362.379 72.944V72.4181L362.642 72.1552V71.8922L362.905 71.6293L363.168 71.1034L363.694 70.5776V70.0517H363.431L362.905 70.3147H362.379V69.7888L363.168 69H363.431L363.694 68.7371H363.957ZM368.953 71.8922H369.216V72.1552H368.953V71.8922ZM344.237 77.1509L344.5 76.8879H346.341L346.603 77.1509H346.866L347.392 77.4138H347.655L348.181 77.6767H348.444L348.97 78.2026H349.233L351.862 80.8319V81.6207H351.599L351.336 81.3578L350.547 80.8319L349.759 80.0431L349.233 79.7802L348.707 79.2543H348.444L348.181 78.9914H347.918L347.655 78.7284H346.866L346.341 78.9914H345.552L345.026 78.7284L344.763 78.4655H343.185L342.659 78.7284H342.397L341.871 78.9914H341.608L341.345 79.2543H341.082L340.819 79.5172H340.293V79.2543L341.082 78.4655H341.345L341.871 77.9397H342.134L342.397 77.6767H342.659L343.185 77.4138H343.448L343.974 77.1509H344.237ZM274.823 77.9397L275.086 77.6767H276.138L276.401 77.9397H276.664L276.927 78.2026H277.19L277.453 78.4655H277.716L277.978 78.7284L278.504 78.9914L278.767 79.2543L279.556 78.9914L279.819 79.2543H280.345L280.871 78.9914H281.134L281.397 78.7284H281.659L281.922 78.4655H282.185L282.448 78.2026H282.711L282.974 77.9397H283.237L283.5 77.6767H284.026L284.815 78.4655V78.7284L285.078 78.9914V79.2543L285.341 79.5172V79.7802L285.603 80.0431V80.306L285.866 80.569V80.8319H285.603L285.078 80.569L284.026 79.5172H283.763L283.5 79.2543H282.974L282.711 79.5172H282.448L282.185 79.7802H281.922L281.659 80.0431H281.134L280.871 80.306H280.608L280.345 80.569V80.8319L280.082 81.0948H278.767L278.504 80.306L278.241 80.0431H277.978L277.453 79.5172H277.19L276.664 79.2543H275.612L275.349 79.5172H274.823L274.56 79.7802H274.034L273.772 80.0431H273.246L272.72 80.306H271.931V80.0431L272.194 79.7802L272.72 79.5172L272.983 79.2543L273.772 78.7284L274.297 78.2026L274.823 77.9397ZM340.03 79.5172H340.293V79.7802H340.03V79.5172ZM351.862 81.6207H352.125V81.8836H351.862V81.6207ZM368.427 85.8276H369.741L370.53 86.0905H374.474L375 85.8276V86.3535L374.474 86.8793H374.211L373.685 87.1422H370.53L369.741 86.8793L368.69 87.1422L368.164 87.6681H367.901L367.375 88.194H367.112V88.4569L367.638 88.9828V89.2457H365.534L365.009 88.9828H364.746L363.957 88.7198H363.431L362.642 88.4569H362.379L361.853 88.194H360.802L360.276 88.7198H360.013L359.75 88.9828H359.487L359.224 89.2457H358.961L358.698 89.5086H358.172L357.647 89.7716H356.069V89.5086H356.595L356.858 89.2457H357.121L357.384 88.9828H357.647L358.172 88.7198L358.435 88.4569L358.961 88.194L360.539 86.6164H361.328L361.591 86.8793H361.853L362.116 87.1422H362.379L362.905 87.4052H363.694L363.957 87.1422H366.323L366.849 86.8793L367.112 86.6164H367.375L367.638 86.3535H367.901L368.427 85.8276ZM308.741 86.3535L309.004 86.0905H313.737L314.263 86.6164H314.526L314.789 86.8793H316.629L316.892 87.1422H317.418L317.681 86.8793H317.944L318.207 86.6164H319.259L320.573 87.931H320.836L321.099 88.194H321.362L321.625 88.4569H322.151L321.625 88.7198H320.836L320.31 88.4569H320.047L319.784 88.194H319.522L318.996 87.6681H317.944L317.418 87.931H316.892L316.103 88.194H315.841L315.315 88.4569H314V88.194L314.263 87.931V87.6681L314 87.4052H313.737L313.211 86.8793H309.793L309.267 86.6164H309.004L308.741 86.3535ZM313.737 88.4569H314V88.7198H313.737V88.4569ZM367.638 89.5086V89.2457H368.164V89.5086H367.638ZM332.142 93.9785V93.7155H332.931L332.668 93.9785H332.142ZM333.194 94.2414L333.72 93.9785H334.246L334.772 94.2414H335.034L335.297 94.5043H335.56L336.875 95.819L337.138 96.3448L337.927 97.1336H338.716L338.978 96.8707H339.241L339.504 96.6078H339.767L340.293 96.0819H340.556L340.819 95.819H341.082L341.345 95.556H341.608L341.871 95.2931H346.341L347.392 95.819H346.341L345.289 96.0819H342.922L342.659 96.3448H342.397L341.871 96.8707H341.608L341.345 97.1336H341.082L340.556 97.6595H340.293L340.03 97.9224H339.504L339.241 98.1853H338.978V98.4483L339.504 98.9741V99.2371H339.241L338.978 99.5H338.453L337.664 98.9741L337.138 98.4483V97.9224L336.612 97.6595H336.349V96.8707L336.086 96.3448L335.823 96.0819L335.56 95.556L334.772 94.7672H334.509L334.246 94.5043H333.983L333.457 94.2414H333.194Z" fill="#B2C38C"/>
</g>
<defs>
<radialGradient id="paint0_radial_1_159" cx="0" cy="0" r="1" gradientUnits="userSpaceOnUse" gradientTransform="translate(55.5962 20.887) rotate(27.4076) scale(352.459 552.523)">
<stop stop-color="#FAFFF5"/>
<stop offset="1" stop-color="#C8DD9B"/>
</radialGradient>
<linearGradient id="paint1_linear_1_159" x1="329.286" y1="30.5862" x2="314" y2="91" gradientUnits="userSpaceOnUse">
<stop stop-color="#DEECC2"/>
<stop offset="1" stop-color="#F4FFE9"/>
</linearGradient>
<linearGradient id="paint2_linear_1_159" x1="314.634" y1="111.528" x2="370.475" y2="178" gradientUnits="userSpaceOnUse">
<stop offset="0.112401" stop-color="#D3E5AF"/>
<stop offset="0.494844" stop-color="#B1C28B"/>
<stop offset="0.856188" stop-color="#B1C28B"/>
</linearGradient>
<clipPath id="clip0_1_159">
<rect width="380" height="178" fill="white"/>
</clipPath>
</defs>
</svg>
