<svg width="16" height="20" viewBox="0 0 16 20" fill="none" xmlns="http://www.w3.org/2000/svg">
<g id="Group 1000002602">
<path id="Vector" d="M1.06689 15.1832V8.01299C1.06689 4.86407 1.06689 3.28961 2.08226 2.31137C3.09762 1.33313 4.73182 1.33313 8.00023 1.33313C11.2686 1.33313 12.9029 1.33313 13.9182 2.31137C14.9336 3.28961 14.9336 4.86407 14.9336 8.01299V15.1832C14.9336 17.1816 14.9336 18.1808 14.2638 18.5385C12.9667 19.231 10.5337 16.9203 9.37823 16.2245C8.70812 15.821 8.37307 15.6193 8.00023 15.6193C7.62739 15.6193 7.29233 15.821 6.62223 16.2245C5.46679 16.9203 3.03377 19.231 1.7367 18.5385C1.06689 18.1808 1.06689 17.1816 1.06689 15.1832Z" stroke="#282E29" stroke-width="1.5" stroke-linecap="round" stroke-linejoin="round"/>
<path id="Vector_2" d="M1.06689 5.66443H14.9336" stroke="#282E29" stroke-width="1.5" stroke-linecap="round" stroke-linejoin="round"/>
</g>
</svg>
