<svg width="25" height="24" viewBox="0 0 25 24" fill="none" xmlns="http://www.w3.org/2000/svg">
<g id="vuesax/bulk/cup">
<g id="cup">
<path id="Vector" opacity="0.4" d="M18.5 20.5H17.5V20.25C17.5 19.15 16.6 18.25 15.5 18.25H13.25V15.96C13 15.99 12.75 16 12.5 16C12.25 16 12 15.99 11.75 15.96V18.25H9.5C8.4 18.25 7.5 19.15 7.5 20.25V20.5H6.5C6.09 20.5 5.75 20.84 5.75 21.25C5.75 21.66 6.09 22 6.5 22H18.5C18.91 22 19.25 21.66 19.25 21.25C19.25 20.84 18.91 20.5 18.5 20.5Z" fill="#FF9F00"/>
<path id="Vector_2" opacity="0.4" d="M6.02003 11.64C5.36003 11.39 4.78003 10.98 4.32003 10.52C3.39003 9.49 2.78003 8.26 2.78003 6.82C2.78003 5.38 3.91003 4.25 5.35003 4.25H5.91003C5.65003 4.78 5.50003 5.37 5.50003 6V9C5.50003 9.94 5.68003 10.83 6.02003 11.64Z" fill="#FF9F00"/>
<path id="Vector_3" opacity="0.4" d="M22.22 6.82C22.22 8.26 21.61 9.49 20.68 10.52C20.22 10.98 19.64 11.39 18.98 11.64C19.32 10.83 19.5 9.94 19.5 9V6C19.5 5.37 19.35 4.78 19.09 4.25H19.65C21.09 4.25 22.22 5.38 22.22 6.82Z" fill="#FF9F00"/>
<path id="Vector_4" d="M15.5 2H9.5C7.29 2 5.5 3.79 5.5 6V9C5.5 12.87 8.63 16 12.5 16C16.37 16 19.5 12.87 19.5 9V6C19.5 3.79 17.71 2 15.5 2ZM15.34 8.45L14.72 9.21C14.62 9.32 14.55 9.54 14.56 9.69L14.62 10.67C14.66 11.27 14.23 11.58 13.67 11.36L12.76 11C12.62 10.95 12.38 10.95 12.24 11L11.33 11.36C10.77 11.58 10.34 11.27 10.38 10.67L10.44 9.69C10.45 9.54 10.38 9.32 10.28 9.21L9.66 8.45C9.27 7.99 9.44 7.48 10.02 7.33L10.97 7.09C11.12 7.05 11.3 6.91 11.38 6.78L11.91 5.96C12.24 5.45 12.76 5.45 13.09 5.96L13.62 6.78C13.7 6.91 13.88 7.05 14.03 7.09L14.98 7.33C15.56 7.48 15.73 7.99 15.34 8.45Z" fill="#FF9F00"/>
<path id="Vector_5" d="M15.34 8.45001L14.72 9.21001C14.62 9.32001 14.55 9.54001 14.56 9.69001L14.62 10.67C14.66 11.27 14.23 11.58 13.67 11.36L12.76 11C12.62 10.95 12.38 10.95 12.24 11L11.33 11.36C10.77 11.58 10.34 11.27 10.38 10.67L10.44 9.69001C10.45 9.54001 10.38 9.32001 10.28 9.21001L9.65999 8.45001C9.26999 7.99001 9.43999 7.48001 10.02 7.33001L10.97 7.09001C11.12 7.05001 11.3 6.91001 11.38 6.78001L11.91 5.96001C12.24 5.45001 12.76 5.45001 13.09 5.96001L13.62 6.78001C13.7 6.91001 13.88 7.05001 14.03 7.09001L14.98 7.33001C15.56 7.48001 15.73 7.99001 15.34 8.45001Z" fill="#FBFFFB"/>
</g>
</g>
</svg>
