<svg width="18" height="18" viewBox="0 0 18 18" fill="none" xmlns="http://www.w3.org/2000/svg">
<path d="M13.86 9.1875C14.07 9.1875 14.25 9.0075 14.235 8.7975C14.0325 6.0825 11.7675 3.9375 9.00002 3.9375C6.23252 3.9375 3.96754 6.075 3.76504 8.7975C3.75004 9.0075 3.93004 9.1875 4.14004 9.1875H13.86Z" fill="#698754"/>
<path d="M16.5 9.75H16.44C16.0275 9.75 15.69 9.4125 15.69 9C15.69 8.5875 16.0275 8.25 16.44 8.25C16.8525 8.25 17.22 8.5875 17.22 9C17.22 9.4125 16.9125 9.75 16.5 9.75ZM1.56001 9.75H1.5C1.0875 9.75 0.75 9.4125 0.75 9C0.75 8.5875 1.0875 8.25 1.5 8.25C1.9125 8.25 2.27998 8.5875 2.27998 9C2.27998 9.4125 1.97251 9.75 1.56001 9.75ZM14.2575 4.4925C14.0625 4.4925 13.875 4.4175 13.725 4.275C13.4325 3.9825 13.4325 3.50999 13.725 3.21749L13.8225 3.12C14.115 2.8275 14.5875 2.8275 14.88 3.12C15.1725 3.4125 15.1725 3.88501 14.88 4.17751L14.7825 4.275C14.64 4.4175 14.4525 4.4925 14.2575 4.4925ZM3.74249 4.4925C3.54749 4.4925 3.36002 4.4175 3.21002 4.275L3.11252 4.17751C2.82002 3.88501 2.82002 3.4125 3.11252 3.12C3.40502 2.8275 3.8775 2.8275 4.17 3.12L4.2675 3.21749C4.56 3.50999 4.56 3.9825 4.2675 4.275C4.125 4.4175 3.92999 4.4925 3.74249 4.4925ZM9 2.27999C8.5875 2.27999 8.25 1.9725 8.25 1.56V1.5C8.25 1.0875 8.5875 0.75 9 0.75C9.4125 0.75 9.75 1.0875 9.75 1.5C9.75 1.9125 9.4125 2.27999 9 2.27999Z" fill="#698754"/>
<path opacity="0.4" d="M15 11.8125H3C2.6925 11.8125 2.4375 11.5575 2.4375 11.25C2.4375 10.9425 2.6925 10.6875 3 10.6875H15C15.3075 10.6875 15.5625 10.9425 15.5625 11.25C15.5625 11.5575 15.3075 11.8125 15 11.8125Z" fill="#698754"/>
<path opacity="0.4" d="M13.5 14.0625H4.5C4.1925 14.0625 3.9375 13.8075 3.9375 13.5C3.9375 13.1925 4.1925 12.9375 4.5 12.9375H13.5C13.8075 12.9375 14.0625 13.1925 14.0625 13.5C14.0625 13.8075 13.8075 14.0625 13.5 14.0625Z" fill="#698754"/>
<path opacity="0.4" d="M11.25 16.3125H6.75C6.4425 16.3125 6.1875 16.0575 6.1875 15.75C6.1875 15.4425 6.4425 15.1875 6.75 15.1875H11.25C11.5575 15.1875 11.8125 15.4425 11.8125 15.75C11.8125 16.0575 11.5575 16.3125 11.25 16.3125Z" fill="#698754"/>
</svg>
