<svg width="21" height="16" viewBox="0 0 21 16" fill="none" xmlns="http://www.w3.org/2000/svg">
<g id="Group 33829">
<path id="Vector" opacity="0.4" d="M10.5 1.53125V15.875C10.5 15.875 13.7625 14.75 15.5625 14.75C16.916 14.75 18.6703 15.1754 19.7777 15.5445C20.175 15.6781 20.625 15.3828 20.625 14.9645V1.94609C20.625 1.5207 20.3859 1.12695 19.9887 0.975781C18.9973 0.592578 17.3379 0.125 15.5625 0.125C13.3125 0.125 11.0625 0.96875 10.5 1.53125Z" fill="#C36839"/>
<path id="Vector_2" d="M10.5 1.53125V15.875C10.5 15.875 7.2375 14.75 5.4375 14.75C4.08398 14.75 2.32969 15.1754 1.22227 15.5445C0.825 15.6746 0.375 15.3828 0.375 14.9645V1.94609C0.375 1.5207 0.614063 1.12695 1.01133 0.972266C2.00273 0.592578 3.66211 0.125 5.4375 0.125C7.6875 0.125 9.9375 0.96875 10.5 1.53125Z" fill="#C36839"/>
</g>
</svg>
