<svg width="16" height="17" viewBox="0 0 16 17" fill="none" xmlns="http://www.w3.org/2000/svg">
<path d="M7.3171 2.52703C7.70145 2.16781 8.29839 2.16781 8.68274 2.52703L10.3304 4.06695C10.4419 4.17119 10.5759 4.24852 10.7219 4.29299L12.8793 4.94994C13.3826 5.10318 13.6811 5.62015 13.5622 6.13261L13.0524 8.32948C13.0179 8.4782 13.0179 8.63285 13.0524 8.78157L13.5622 10.9784C13.6811 11.4909 13.3826 12.0079 12.8793 12.1611L10.7219 12.8181C10.5759 12.8625 10.4419 12.9398 10.3304 13.0441L8.68274 14.584C8.29839 14.9432 7.70145 14.9432 7.3171 14.584L5.66945 13.0441C5.55791 12.9398 5.42398 12.8625 5.27793 12.8181L3.1205 12.1611C2.61724 12.0079 2.31876 11.4909 2.43768 10.9784L2.94747 8.78157C2.98198 8.63285 2.98198 8.4782 2.94747 8.32948L2.43768 6.13261C2.31876 5.62015 2.61724 5.10318 3.1205 4.94994L5.27793 4.29299C5.42398 4.24852 5.55791 4.17119 5.66945 4.06695L7.3171 2.52703Z" stroke="#709484" stroke-width="1.5"/>
</svg>
