<svg width="16" height="16" viewBox="0 0 16 16" fill="none" xmlns="http://www.w3.org/2000/svg">
<path d="M10.9576 2.74494V1.77362C10.9576 1.51834 10.7459 1.30664 10.4906 1.30664C10.2353 1.30664 10.0236 1.51834 10.0236 1.77362V2.70758H5.97642V1.77362C5.97642 1.51834 5.76472 1.30664 5.50944 1.30664C5.25416 1.30664 5.04246 1.51834 5.04246 1.77362V2.74494C3.36132 2.9006 2.54566 3.90305 2.42114 5.39117C2.40868 5.57173 2.55812 5.72117 2.73246 5.72117H13.2676C13.4481 5.72117 13.5976 5.56551 13.5789 5.39117C13.4543 3.90305 12.6387 2.9006 10.9576 2.74494Z" fill="#5D6F34"/>
<path opacity="0.4" d="M12.9811 6.65509C13.3236 6.65509 13.6038 6.93528 13.6038 7.27773V11.1132C13.6038 12.9811 12.6698 14.2264 10.4906 14.2264H5.50945C3.3302 14.2264 2.39624 12.9811 2.39624 11.1132V7.27773C2.39624 6.93528 2.67643 6.65509 3.01888 6.65509H12.9811Z" fill="#5D6F34"/>
<path d="M5.82076 9.86795C5.65887 9.86795 5.49699 9.79945 5.37869 9.68738C5.26661 9.56908 5.19812 9.40719 5.19812 9.24531C5.19812 9.08342 5.26661 8.92154 5.37869 8.80324C5.55303 8.6289 5.82699 8.57285 6.05737 8.67247C6.13831 8.7036 6.2068 8.7472 6.26284 8.80324C6.37491 8.92154 6.4434 9.08342 6.4434 9.24531C6.4434 9.40719 6.37491 9.56908 6.26284 9.68738C6.14453 9.79945 5.98265 9.86795 5.82076 9.86795Z" fill="#5D6F34"/>
<path d="M8.00002 9.86795C7.83814 9.86795 7.67625 9.79945 7.55795 9.68738C7.44587 9.56908 7.37738 9.40719 7.37738 9.24531C7.37738 9.08342 7.44587 8.92154 7.55795 8.80324C7.61398 8.7472 7.68247 8.7036 7.76342 8.67247C7.99379 8.57285 8.26776 8.6289 8.4421 8.80324C8.55417 8.92154 8.62266 9.08342 8.62266 9.24531C8.62266 9.40719 8.55417 9.56908 8.4421 9.68738C8.41096 9.71228 8.37983 9.73719 8.3487 9.76209C8.31134 9.787 8.27398 9.80569 8.23663 9.81815C8.19927 9.83682 8.16191 9.84928 8.12455 9.8555C8.08097 9.86173 8.04361 9.86795 8.00002 9.86795Z" fill="#5D6F34"/>
<path d="M10.1793 9.86797C10.0174 9.86797 9.85551 9.79947 9.73721 9.6874C9.62513 9.5691 9.55664 9.40722 9.55664 9.24533C9.55664 9.08344 9.62513 8.92156 9.73721 8.80326C9.79947 8.74722 9.86173 8.70362 9.94268 8.67249C10.0548 8.62268 10.1793 8.61023 10.3038 8.63513C10.3412 8.64136 10.3785 8.65381 10.4159 8.67249C10.4532 8.68494 10.4906 8.70364 10.528 8.72855C10.5591 8.75345 10.5902 8.77835 10.6214 8.80326C10.7334 8.92156 10.8019 9.08344 10.8019 9.24533C10.8019 9.40722 10.7334 9.5691 10.6214 9.6874C10.5902 9.7123 10.5591 9.73721 10.528 9.76211C10.4906 9.78702 10.4532 9.80571 10.4159 9.81817C10.3785 9.83685 10.3412 9.8493 10.3038 9.85552C10.2602 9.86175 10.2166 9.86797 10.1793 9.86797Z" fill="#5D6F34"/>
<path d="M5.82076 12.0472C5.73982 12.0472 5.65887 12.0285 5.58416 11.9974C5.50321 11.9662 5.44095 11.9226 5.37869 11.8666C5.26661 11.7483 5.19812 11.5864 5.19812 11.4245C5.19812 11.2626 5.26661 11.1008 5.37869 10.9825C5.44095 10.9264 5.50321 10.8828 5.58416 10.8517C5.69623 10.8019 5.82076 10.7894 5.94529 10.8143C5.98265 10.8206 6.02001 10.833 6.05737 10.8517C6.09472 10.8641 6.13208 10.8828 6.16944 10.9077C6.20057 10.9327 6.2317 10.9576 6.26284 10.9825C6.37491 11.1008 6.4434 11.2626 6.4434 11.4245C6.4434 11.5864 6.37491 11.7483 6.26284 11.8666C6.2317 11.8915 6.20057 11.9226 6.16944 11.9413C6.13208 11.9662 6.09472 11.9849 6.05737 11.9974C6.02001 12.016 5.98265 12.0285 5.94529 12.0347C5.90171 12.041 5.86435 12.0472 5.82076 12.0472Z" fill="#5D6F34"/>
<path d="M8.00002 12.0472C7.83814 12.0472 7.67625 11.9787 7.55795 11.8666C7.44587 11.7483 7.37738 11.5864 7.37738 11.4245C7.37738 11.2627 7.44587 11.1008 7.55795 10.9825C7.78832 10.7521 8.21172 10.7521 8.4421 10.9825C8.55417 11.1008 8.62266 11.2627 8.62266 11.4245C8.62266 11.5864 8.55417 11.7483 8.4421 11.8666C8.32379 11.9787 8.16191 12.0472 8.00002 12.0472Z" fill="#5D6F34"/>
<path d="M10.1793 12.0472C10.0174 12.0472 9.85551 11.9787 9.73721 11.8666C9.62513 11.7483 9.55664 11.5864 9.55664 11.4245C9.55664 11.2627 9.62513 11.1008 9.73721 10.9825C9.96758 10.7521 10.391 10.7521 10.6214 10.9825C10.7334 11.1008 10.8019 11.2627 10.8019 11.4245C10.8019 11.5864 10.7334 11.7483 10.6214 11.8666C10.5031 11.9787 10.3412 12.0472 10.1793 12.0472Z" fill="#5D6F34"/>
</svg>
