<svg width="18" height="18" viewBox="0 0 18 18" fill="none" xmlns="http://www.w3.org/2000/svg">
<g clip-path="url(#clip0_714_38185)">
<path fill-rule="evenodd" clip-rule="evenodd" d="M9 0.1875C9.31066 0.1875 9.5625 0.43934 9.5625 0.75V2.25C9.5625 2.56066 9.31066 2.8125 9 2.8125C8.68934 2.8125 8.4375 2.56066 8.4375 2.25V0.75C8.4375 0.43934 8.68934 0.1875 9 0.1875ZM2.76725 2.76725C2.98692 2.54758 3.34308 2.54758 3.56275 2.76725L4.62775 3.83225C4.84742 4.05192 4.84742 4.40808 4.62775 4.62775C4.40808 4.84742 4.05192 4.84742 3.83225 4.62775L2.76725 3.56275C2.54758 3.34308 2.54758 2.98692 2.76725 2.76725ZM15.2327 2.76725C15.4524 2.98692 15.4524 3.34308 15.2327 3.56275L14.1677 4.62775C13.9481 4.84742 13.5919 4.84742 13.3723 4.62775C13.1526 4.40808 13.1526 4.05192 13.3723 3.83225L14.4373 2.76725C14.6569 2.54758 15.0131 2.54758 15.2327 2.76725ZM0.1875 9C0.1875 8.68934 0.43934 8.4375 0.75 8.4375H2.25C2.56066 8.4375 2.8125 8.68934 2.8125 9C2.8125 9.31066 2.56066 9.5625 2.25 9.5625H0.75C0.43934 9.5625 0.1875 9.31066 0.1875 9ZM15.1875 9C15.1875 8.68934 15.4393 8.4375 15.75 8.4375H17.25C17.5607 8.4375 17.8125 8.68934 17.8125 9C17.8125 9.31066 17.5607 9.5625 17.25 9.5625H15.75C15.4393 9.5625 15.1875 9.31066 15.1875 9ZM4.62775 13.3723C4.84742 13.5919 4.84742 13.9481 4.62775 14.1677L3.56275 15.2327C3.34308 15.4524 2.98692 15.4524 2.76725 15.2327C2.54758 15.0131 2.54758 14.6569 2.76725 14.4373L3.83225 13.3723C4.05192 13.1526 4.40808 13.1526 4.62775 13.3723ZM13.3723 13.3723C13.5919 13.1526 13.9481 13.1526 14.1677 13.3723L15.2327 14.4373C15.4524 14.6569 15.4524 15.0131 15.2327 15.2327C15.0131 15.4524 14.6569 15.4524 14.4373 15.2327L13.3723 14.1677C13.1526 13.9481 13.1526 13.5919 13.3723 13.3723ZM9 15.1875C9.31066 15.1875 9.5625 15.4393 9.5625 15.75V17.25C9.5625 17.5607 9.31066 17.8125 9 17.8125C8.68934 17.8125 8.4375 17.5607 8.4375 17.25V15.75C8.4375 15.4393 8.68934 15.1875 9 15.1875Z" fill="#698754"/>
<circle opacity="0.4" cx="9" cy="9" r="6" fill="#698754"/>
</g>
<defs>
<clipPath id="clip0_714_38185">
<rect width="18" height="18" fill="white"/>
</clipPath>
</defs>
</svg>
