<svg width="23" height="23" viewBox="0 0 23 23" fill="none" xmlns="http://www.w3.org/2000/svg">
<path d="M10.5833 2.27728H8.75001C4.16668 2.27728 2.33334 4.11062 2.33334 8.69395V14.1939C2.33334 18.7773 4.16668 20.6106 8.75001 20.6106H14.25C18.8333 20.6106 20.6667 18.7773 20.6667 14.1939V12.3606" stroke="#417360" stroke-width="1.75" stroke-linecap="round" stroke-linejoin="round"/>
<path d="M15.2033 3.21229L7.98001 10.4356C7.70501 10.7106 7.43001 11.2515 7.37501 11.6456L6.98084 14.4048C6.83418 15.404 7.54001 16.1006 8.53918 15.9631L11.2983 15.569C11.6833 15.514 12.2242 15.239 12.5083 14.964L19.7317 7.74062C20.9783 6.49396 21.565 5.04562 19.7317 3.21229C17.8983 1.37896 16.45 1.96562 15.2033 3.21229Z" stroke="#417360" stroke-width="1.75" stroke-miterlimit="10" stroke-linecap="round" stroke-linejoin="round"/>
<path d="M14.1675 4.24814C14.7817 6.43897 16.4958 8.15314 18.6958 8.77647" stroke="#417360" stroke-width="1.5" stroke-miterlimit="10" stroke-linecap="round" stroke-linejoin="round"/>
</svg>
