<svg width="24" height="25" viewBox="0 0 24 25" fill="none" xmlns="http://www.w3.org/2000/svg">
<path d="M9.19997 15.3355L11.78 17.5955C11.9 17.7055 12.09 17.7055 12.21 17.5955L14.79 15.3355C15.46 14.7455 15.55 13.7455 14.99 13.0455C14.43 12.3455 13.41 12.2155 12.7 12.7555L12 13.2955L11.29 12.7655C10.57 12.2255 9.55997 12.3555 8.99997 13.0555C8.43997 13.7455 8.52997 14.7555 9.19997 15.3355Z" stroke="#417360" stroke-width="1.75" stroke-linecap="round" stroke-linejoin="round"/>
<path d="M22 11.5555V17.5555C22 21.5555 21 22.5555 17 22.5555H7C3 22.5555 2 21.5555 2 17.5555V7.55554C2 3.55554 3 2.55554 7 2.55554H8.5C10 2.55554 10.33 2.99554 10.9 3.75554L12.4 5.75554C12.78 6.25554 13 6.55554 14 6.55554H17C21 6.55554 22 7.55554 22 11.5555Z" stroke="#417360" stroke-width="1.75" stroke-miterlimit="10"/>
</svg>
