<svg width="38" height="34" viewBox="0 0 38 34" fill="none" xmlns="http://www.w3.org/2000/svg">
<g id="Kaaba">
<g id="Group">
<path id="Vector" d="M37.75 31.0625H0.25V33.5625H37.75V31.0625Z" fill="white"/>
<path id="Vector_2" d="M19 0.4375V31.0625H1.8125V4.08406C1.8125 3.78188 2.02844 3.52313 2.32563 3.46906L19 0.4375Z" fill="#2C3E50"/>
<path id="Vector_3" d="M11.8125 21.125V31.0625H4.625V21.8787C4.625 21.564 4.85906 21.2984 5.17125 21.2587L11.1088 20.505C11.4822 20.4575 11.8125 20.7484 11.8125 21.125Z" fill="#1A242D"/>
<path id="Vector_4" d="M36.1875 4.08406V31.0625H19V0.4375L35.6744 3.46906C35.9716 3.52313 36.1875 3.78219 36.1875 4.08406Z" fill="#3F5C6C"/>
<path id="Vector_5" d="M33.3749 27.5751C33.373 27.5751 33.3708 27.5751 33.369 27.5751L30.5565 27.5219C30.3836 27.5185 30.2468 27.376 30.2499 27.2035C30.2533 27.0313 30.399 26.8966 30.5683 26.8969L33.3808 26.9501C33.5536 26.9535 33.6905 27.096 33.6874 27.2685C33.684 27.4388 33.5449 27.5751 33.3749 27.5751ZM30.5627 23.9844C30.5586 23.9844 30.5549 23.9844 30.5508 23.9844L27.7383 23.8813C27.5658 23.8747 27.4315 23.7301 27.4377 23.5576C27.4443 23.3851 27.5936 23.2466 27.7615 23.2566L30.574 23.3597C30.7465 23.3663 30.8808 23.511 30.8746 23.6835C30.8683 23.8519 30.7299 23.9844 30.5627 23.9844ZM27.7499 27.4719C27.748 27.4719 27.7461 27.4719 27.7443 27.4719L24.9318 27.4219C24.7593 27.4188 24.6218 27.2766 24.6249 27.1041C24.628 26.9313 24.7577 26.7963 24.943 26.7972L27.7555 26.8472C27.9283 26.8504 28.0655 26.9926 28.0624 27.1654C28.0593 27.3357 27.9199 27.4719 27.7499 27.4719ZM24.9377 23.7782C24.9336 23.7782 24.9299 23.7782 24.9258 23.7782L22.1133 23.6751C21.9408 23.6685 21.8065 23.5238 21.8127 23.3513C21.819 23.1788 21.9705 23.0426 22.1365 23.0504L24.949 23.1535C25.1215 23.1601 25.2558 23.3047 25.2496 23.4772C25.2433 23.6457 25.1049 23.7782 24.9377 23.7782Z" fill="#2C3E50"/>
<path id="Vector_6" d="M19 3.5625V7.625L1.8125 9.8125V6.375L19 3.5625Z" fill="#E57E25"/>
<path id="Vector_7" d="M36.1875 6.375V9.8125L19 7.625V3.5625L36.1875 6.375Z" fill="#F0C419"/>
<path id="Vector_8" d="M1.8125 13.5625L5.875 12.8969V15.8594L1.8125 16.375V13.5625Z" fill="#E57E25"/>
<path id="Vector_9" d="M9.3125 12.3344L13.375 11.6719V14.9031L9.3125 15.4219V12.3344Z" fill="#E57E25"/>
<path id="Vector_10" d="M36.1875 13.5625L32.125 12.8969V15.8594L36.1875 16.375V13.5625Z" fill="#F0C419"/>
<path id="Vector_11" d="M28.6875 12.3344L24.625 11.6719V14.9031L28.6875 15.4219V12.3344Z" fill="#F0C419"/>
<path id="Vector_12" d="M19 10.75V14.1875L16.8125 14.4656V11.1094L19 10.75Z" fill="#E57E25"/>
<path id="Vector_13" d="M21.1875 11.1094V14.4656L19 14.1875V10.75L21.1875 11.1094Z" fill="#F0C419"/>
</g>
</g>
</svg>
