<svg width="74" height="75" viewBox="0 0 74 75" fill="none" xmlns="http://www.w3.org/2000/svg">
<path d="M47.0516 68.3889C46.8666 68.3889 46.6507 68.358 46.4657 68.2964C40.2682 66.5389 33.7624 66.5389 27.5649 68.2964C26.4241 68.6047 25.2216 67.9572 24.9132 66.8164C24.5741 65.6755 25.2524 64.473 26.3932 64.1647C33.3616 62.1914 40.6999 62.1914 47.6682 64.1647C48.8091 64.5039 49.4874 65.6755 49.1482 66.8164C48.8399 67.7722 47.9766 68.3889 47.0516 68.3889Z" fill="#709484"/>
<path d="M12.8883 59.3855C12.3025 59.3855 11.7166 59.1697 11.2541 58.7072C10.36 57.813 10.36 56.333 11.2541 55.4389L60.125 6.56802C61.0191 5.67386 62.4991 5.67386 63.3933 6.56802C64.2875 7.46219 64.2875 8.94219 63.3933 9.83636L14.5225 58.7072C14.06 59.1697 13.4741 59.3855 12.8883 59.3855Z" fill="#709484"/>
<path opacity="0.4" d="M48.8917 11.3632L17.1703 43.0847C14.9743 39.4669 13.7407 35.4245 13.7407 31.5431C13.7407 24.4407 16.8977 17.8099 22.4322 13.3474C27.9565 8.8933 35.1969 7.23385 42.3195 8.80374L42.3231 8.80453C44.6439 9.31004 46.858 10.1818 48.8917 11.3632Z" fill="#709484" stroke="#709484" stroke-width="3"/>
<path opacity="0.4" d="M49.8575 52.7255V54.8839C49.8884 55.6855 49.95 57.2272 48.7475 58.4605C47.8842 59.3239 46.62 59.7864 44.955 59.7864H29.1375C27.8734 59.7864 26.27 59.6322 25.1909 58.553C24.1734 57.4739 24.2042 56.148 24.235 55.2847V52.7255C22.8475 51.8005 21.5525 50.7522 20.3809 49.5805L55.3459 14.6155C56.8875 16.2497 58.2134 18.1305 59.2309 20.1655C65.4592 32.6839 59.4467 46.2814 49.8575 52.7255Z" fill="#709484"/>
</svg>
