<svg width="18" height="19" viewBox="0 0 18 19" fill="none" xmlns="http://www.w3.org/2000/svg">
<path d="M3.75 8.05554C2.925 8.05554 2.25 8.73054 2.25 9.55554C2.25 10.3805 2.925 11.0555 3.75 11.0555C4.575 11.0555 5.25 10.3805 5.25 9.55554C5.25 8.73054 4.575 8.05554 3.75 8.05554Z" fill="#686D69"/>
<path d="M14.25 8.05554C13.425 8.05554 12.75 8.73054 12.75 9.55554C12.75 10.3805 13.425 11.0555 14.25 11.0555C15.075 11.0555 15.75 10.3805 15.75 9.55554C15.75 8.73054 15.075 8.05554 14.25 8.05554Z" fill="#686D69"/>
<path d="M9 8.05554C8.175 8.05554 7.5 8.73054 7.5 9.55554C7.5 10.3805 8.175 11.0555 9 11.0555C9.825 11.0555 10.5 10.3805 10.5 9.55554C10.5 8.73054 9.825 8.05554 9 8.05554Z" fill="#686D69"/>
</svg>
