<svg width="40" height="40" viewBox="0 0 40 40" fill="none" xmlns="http://www.w3.org/2000/svg">
<g id="medicine">
<path id="Vector" d="M9.85352 8.47754H23.2417V10.4287H9.85352V8.47754Z" fill="white"/>
<path id="Vector_2" d="M28.1998 32.4709C28.1998 35.296 25.9095 37.5864 23.0845 37.5864H10.0111C7.18591 37.5864 4.89551 35.296 4.89551 32.4709V15.1347C4.89551 12.3093 7.18581 10.0192 10.0111 10.0192H23.0843C25.9093 10.0192 28.1997 12.3094 28.1997 15.1347L28.1998 32.4709Z" fill="white"/>
<path id="Vector_3" d="M9.04426 5.18251V3.61841H7.43066V5.18261C7.43066 6.05691 8.13946 6.76541 9.01366 6.76541H10.6273C9.75306 6.76531 9.04426 6.05681 9.04426 5.18251Z" fill="#F9C87F"/>
<path id="Vector_4" d="M28.7052 32.2158L25.0658 32.2197C23.5431 32.2213 22.31 33.457 22.3115 34.9796C22.3133 36.5025 23.5488 37.7356 25.0716 37.734L28.7109 37.7303L28.7052 32.2158Z" fill="#D7EEFF"/>
<path id="Vector_5" d="M28.5518 37.7305L32.3506 37.7264C33.8732 37.725 35.1064 36.4891 35.1048 34.9664C35.1034 33.4436 33.8676 32.2104 32.3448 32.212L28.5459 32.2159L28.5518 37.7305Z" fill="#0494FD"/>
<path id="Vector_6" d="M24.6653 29.6414C24.6653 30.5721 23.9109 31.3264 22.9802 31.3264H10.1139C9.18321 31.3264 8.42871 30.5721 8.42871 29.6414V17.9644C8.42871 17.0335 9.18321 16.2791 10.1139 16.2791H22.9802C23.9109 16.2791 24.6653 17.0335 24.6653 17.9644V29.6414Z" fill="#0494FD"/>
<path id="Vector_7" d="M19.6181 22.4554H17.8946V20.7319C17.8946 20.1088 17.3894 19.6038 16.7663 19.6038H16.3276C15.7045 19.6038 15.1995 20.1088 15.1995 20.7319V22.4554H13.4758C12.8528 22.4554 12.3477 22.9606 12.3477 23.5835V24.0221C12.3477 24.6453 12.8527 25.1502 13.4758 25.1502H15.1995V26.8739C15.1995 27.497 15.7044 28.0021 16.3276 28.0021H16.7663C17.3893 28.0021 17.8946 27.497 17.8946 26.8739V25.1502H19.6181C20.2411 25.1502 20.7463 24.6453 20.7463 24.0221V23.5835C20.7462 22.9605 20.2411 22.4554 19.6181 22.4554Z" fill="white"/>
<path id="Vector_8" d="M26.8004 4.00859V7.13619C26.8004 8.01059 26.0913 8.71809 25.2171 8.71809H7.87822C7.00392 8.71809 6.29492 8.01059 6.29492 7.13619V4.00859C6.29492 3.13439 7.00392 2.42529 7.87822 2.42529H8.71642L8.87572 2.26599H24.2179L24.3771 2.42529H25.2169C26.0913 2.42529 26.8004 3.13439 26.8004 4.00859Z" fill="#0494FD"/>
<path id="Vector_9" d="M9.02888 8.06302C9.02888 8.21564 8.96825 8.36201 8.86033 8.46993C8.75242 8.57784 8.60605 8.63847 8.45343 8.63847C8.30081 8.63847 8.15444 8.57784 8.04653 8.46993C7.93861 8.36201 7.87798 8.21564 7.87798 8.06302V2.92122C7.87698 2.84501 7.89112 2.76937 7.91959 2.69867C7.94805 2.62797 7.99028 2.56363 8.04382 2.50939C8.09735 2.45514 8.16113 2.41207 8.23144 2.38267C8.30176 2.35327 8.37722 2.33813 8.45343 2.33813C8.52964 2.33813 8.6051 2.35327 8.67542 2.38267C8.74573 2.41207 8.80951 2.45514 8.86304 2.50939C8.91658 2.56363 8.95881 2.62797 8.98727 2.69867C9.01574 2.76937 9.02988 2.84501 9.02888 2.92122V8.06302ZM12.1774 8.06302C12.1774 8.21564 12.1168 8.36201 12.0088 8.46993C11.9009 8.57784 11.7545 8.63847 11.6019 8.63847C11.4493 8.63847 11.3029 8.57784 11.195 8.46993C11.0871 8.36201 11.0265 8.21564 11.0265 8.06302V2.92122C11.0255 2.84501 11.0396 2.76937 11.0681 2.69867C11.0966 2.62797 11.1388 2.56363 11.1923 2.50939C11.2459 2.45514 11.3096 2.41207 11.3799 2.38267C11.4503 2.35327 11.5257 2.33813 11.6019 2.33813C11.6781 2.33813 11.7536 2.35327 11.8239 2.38267C11.8942 2.41207 11.958 2.45514 12.0115 2.50939C12.0651 2.56363 12.1073 2.62797 12.1358 2.69867C12.1642 2.76937 12.1784 2.84501 12.1774 2.92122V8.06302ZM15.326 8.06302C15.326 8.21564 15.2654 8.36201 15.1574 8.46993C15.0495 8.57784 14.9031 8.63847 14.7505 8.63847C14.5979 8.63847 14.4515 8.57784 14.3436 8.46993C14.2357 8.36201 14.1751 8.21564 14.1751 8.06302V2.92122C14.1741 2.84501 14.1882 2.76937 14.2167 2.69867C14.2452 2.62797 14.2874 2.56363 14.3409 2.50939C14.3945 2.45514 14.4582 2.41207 14.5285 2.38267C14.5989 2.35327 14.6743 2.33813 14.7505 2.33813C14.8267 2.33813 14.9022 2.35327 14.9725 2.38267C15.0428 2.41207 15.1066 2.45514 15.1601 2.50939C15.2137 2.56363 15.2559 2.62797 15.2844 2.69867C15.3128 2.76937 15.327 2.84501 15.326 2.92122V8.06302ZM18.4745 8.06302C18.4745 8.21565 18.4138 8.36203 18.3059 8.46996C18.198 8.57789 18.0516 8.63852 17.899 8.63852C17.7463 8.63852 17.6 8.57789 17.492 8.46996C17.3841 8.36203 17.3235 8.21565 17.3235 8.06302V2.92122C17.3235 2.76859 17.3841 2.62221 17.492 2.51428C17.6 2.40635 17.7463 2.34572 17.899 2.34572C18.0516 2.34572 18.198 2.40635 18.3059 2.51428C18.4138 2.62221 18.4745 2.76859 18.4745 2.92122V8.06302ZM21.623 8.06302C21.623 8.21564 21.5624 8.36201 21.4544 8.46993C21.3465 8.57784 21.2001 8.63847 21.0475 8.63847C20.8949 8.63847 20.7485 8.57784 20.6406 8.46993C20.5327 8.36201 20.4721 8.21564 20.4721 8.06302V2.92122C20.4711 2.84501 20.4852 2.76937 20.5137 2.69867C20.5422 2.62797 20.5844 2.56363 20.6379 2.50939C20.6915 2.45514 20.7552 2.41207 20.8255 2.38267C20.8959 2.35327 20.9713 2.33813 21.0475 2.33813C21.1237 2.33813 21.1992 2.35327 21.2695 2.38267C21.3398 2.41207 21.4036 2.45514 21.4571 2.50939C21.5107 2.56363 21.5529 2.62797 21.5814 2.69867C21.6098 2.76937 21.624 2.84501 21.623 2.92122V8.06302ZM24.7715 8.06302C24.7715 8.21564 24.7109 8.36201 24.6029 8.46993C24.495 8.57784 24.3486 8.63847 24.196 8.63847C24.0434 8.63847 23.897 8.57784 23.7891 8.46993C23.6812 8.36201 23.6206 8.21564 23.6206 8.06302V2.92122C23.6196 2.84501 23.6337 2.76937 23.6622 2.69867C23.6907 2.62797 23.7329 2.56363 23.7864 2.50939C23.84 2.45514 23.9037 2.41207 23.974 2.38267C24.0444 2.35327 24.1198 2.33813 24.196 2.33813C24.2722 2.33813 24.3477 2.35327 24.418 2.38267C24.4883 2.41207 24.5521 2.45514 24.6056 2.50939C24.6592 2.56363 24.7014 2.62797 24.7299 2.69867C24.7583 2.76937 24.7725 2.84501 24.7715 2.92122V8.06302Z" fill="#D7EEFF"/>
</g>
</svg>
