<svg width="24" height="25" viewBox="0 0 24 25" fill="none" xmlns="http://www.w3.org/2000/svg">
<path opacity="0.4" d="M20.95 15.1055L18.28 17.7756L17.22 18.8356L14.55 21.5056C13.15 22.9056 10.85 22.9056 9.45002 21.5056L6.78001 18.8356L5.72001 17.7756L3.05 15.1055C1.65 13.7055 1.65 11.4056 3.05 10.0056L5.72001 7.33555L6.78001 6.27556L9.45002 3.60554C10.85 2.20554 13.15 2.20554 14.55 3.60554L17.22 6.27556L18.28 7.33555L20.95 10.0056C22.35 11.4056 22.35 13.7055 20.95 15.1055Z" fill="#417360"/>
<path d="M13.06 12.5555L18.28 17.7755L17.22 18.8355L12 13.6155L6.78 18.8355L5.72 17.7755L10.94 12.5555L5.72 7.33551L6.78 6.27551L12 11.4955L17.22 6.27551L18.28 7.33551L13.06 12.5555Z" fill="#417360"/>
</svg>
