<svg width="24" height="25" viewBox="0 0 24 25" fill="none" xmlns="http://www.w3.org/2000/svg">
<path d="M12 13.5555C12.5523 13.5555 13 13.1078 13 12.5555C13 12.0033 12.5523 11.5555 12 11.5555C11.4477 11.5555 11 12.0033 11 12.5555C11 13.1078 11.4477 13.5555 12 13.5555Z" stroke="#709484" stroke-width="1.75" stroke-linecap="round" stroke-linejoin="round"/>
<path d="M12 6.55554C12.5523 6.55554 13 6.10783 13 5.55554C13 5.00326 12.5523 4.55554 12 4.55554C11.4477 4.55554 11 5.00326 11 5.55554C11 6.10783 11.4477 6.55554 12 6.55554Z" stroke="#709484" stroke-width="1.75" stroke-linecap="round" stroke-linejoin="round"/>
<path d="M12 20.5555C12.5523 20.5555 13 20.1078 13 19.5555C13 19.0033 12.5523 18.5555 12 18.5555C11.4477 18.5555 11 19.0033 11 19.5555C11 20.1078 11.4477 20.5555 12 20.5555Z" stroke="#709484" stroke-width="1.75" stroke-linecap="round" stroke-linejoin="round"/>
</svg>
