<svg width="16" height="16" viewBox="0 0 16 16" fill="none" xmlns="http://www.w3.org/2000/svg">
<path opacity="0.4" d="M11.9538 12.7819C11.6113 13.6598 10.777 14.2264 9.83678 14.2264H6.1632C5.21678 14.2264 4.38867 13.6598 4.04621 12.7819C3.70376 11.8977 3.94036 10.9202 4.63772 10.2851L7.15942 8H8.84678L11.3623 10.2851C12.0596 10.9202 12.29 11.8977 11.9538 12.7819Z" fill="#5D6F34"/>
<path d="M9.13323 11.823H6.86682C6.63021 11.823 6.44342 11.63 6.44342 11.3997C6.44342 11.163 6.63644 10.9763 6.86682 10.9763H9.13323C9.36984 10.9763 9.55663 11.1693 9.55663 11.3997C9.55663 11.63 9.36361 11.823 9.13323 11.823Z" fill="#5D6F34"/>
<path d="M11.9538 3.21815C11.6113 2.34022 10.777 1.77362 9.83678 1.77362H6.1632C5.22301 1.77362 4.38867 2.34022 4.04622 3.21815C3.70999 4.1023 3.94037 5.07985 4.64395 5.71494L7.15942 8.00004H8.84678L11.3623 5.71494C12.0596 5.07985 12.29 4.1023 11.9538 3.21815ZM9.1332 5.03004H6.86678C6.63018 5.03004 6.44339 4.83702 6.44339 4.60664C6.44339 4.37626 6.6364 4.18324 6.86678 4.18324H9.1332C9.3698 4.18324 9.55659 4.37626 9.55659 4.60664C9.55659 4.83702 9.36357 5.03004 9.1332 5.03004Z" fill="#5D6F34"/>
</svg>
