<svg width="16" height="17" viewBox="0 0 16 17" fill="none" xmlns="http://www.w3.org/2000/svg">
<path d="M6.70001 2.24223L2.68668 4.86223C1.40001 5.70223 1.40001 7.58223 2.68668 8.42223L6.70001 11.0422C7.42001 11.5156 8.60668 11.5156 9.32668 11.0422L13.32 8.42223C14.6 7.58223 14.6 5.7089 13.32 4.8689L9.32668 2.2489C8.60668 1.7689 7.42001 1.7689 6.70001 2.24223Z" stroke="#709484" stroke-width="1.5" stroke-linecap="round" stroke-linejoin="round"/>
<path d="M3.75325 9.27551L3.74658 12.4022C3.74658 13.2488 4.39992 14.1555 5.19992 14.4222L7.32658 15.1288C7.69325 15.2488 8.29992 15.2488 8.67325 15.1288L10.7999 14.4222C11.5999 14.1555 12.2532 13.2488 12.2532 12.4022V9.30885" stroke="#709484" stroke-width="1.5" stroke-linecap="round" stroke-linejoin="round"/>
<path d="M14.2666 10.5555V6.55554" stroke="#709484" stroke-width="1.5" stroke-linecap="round" stroke-linejoin="round"/>
</svg>
