<svg width="23" height="23" viewBox="0 0 23 23" fill="none" xmlns="http://www.w3.org/2000/svg">
<path d="M19.75 5.92565C16.6975 5.62315 13.6267 5.46732 10.565 5.46732C8.75 5.46732 6.935 5.55898 5.12 5.74232L3.25 5.92565" stroke="#417360" stroke-width="1.75" stroke-linecap="round" stroke-linejoin="round"/>
<path d="M8.29166 4.99981L8.49332 3.79898C8.63999 2.92815 8.74999 2.27731 10.2992 2.27731H12.7008C14.25 2.27731 14.3692 2.96481 14.5067 3.80815L14.7083 4.99981" stroke="#417360" stroke-width="1.75" stroke-linecap="round" stroke-linejoin="round"/>
<path d="M17.7792 8.8223L17.1833 18.0531C17.0825 19.4923 17 20.6106 14.4425 20.6106H8.55749C5.99999 20.6106 5.91749 19.4923 5.81666 18.0531L5.22083 8.8223" stroke="#417360" stroke-width="1.75" stroke-linecap="round" stroke-linejoin="round"/>
<path d="M9.96918 15.569H13.0217" stroke="#417360" stroke-width="1.5" stroke-linecap="round" stroke-linejoin="round"/>
<path d="M9.20834 11.9023H13.7917" stroke="#417360" stroke-width="1.5" stroke-linecap="round" stroke-linejoin="round"/>
</svg>
