<svg width="16" height="17" viewBox="0 0 16 17" fill="none" xmlns="http://www.w3.org/2000/svg">
<path d="M9.99992 6.13548V5.49548C9.99992 3.50882 8.61992 2.74882 6.93992 3.80215L4.99325 5.02215C4.77992 5.14882 4.53325 5.22215 4.28659 5.22215H3.33325C1.99992 5.22215 1.33325 5.88882 1.33325 7.22215V9.88882C1.33325 11.2221 1.99992 11.8888 3.33325 11.8888H4.66659" stroke="#709484" stroke-width="1.5" stroke-linecap="round" stroke-linejoin="round"/>
<path d="M6.93994 13.3088C8.61994 14.3622 9.99994 13.5955 9.99994 11.6155V9.18884" stroke="#709484" stroke-width="1.5" stroke-linecap="round" stroke-linejoin="round"/>
<path d="M12.54 6.83557C13.14 8.2689 12.96 9.94224 12 11.2222" stroke="#709484" stroke-width="1.5" stroke-linecap="round" stroke-linejoin="round"/>
<path d="M14.1 5.75549C15.08 8.08216 14.7866 10.8022 13.22 12.8888" stroke="#709484" stroke-width="1.5" stroke-linecap="round" stroke-linejoin="round"/>
<path d="M14.6666 1.88892L1.33325 15.2222" stroke="#709484" stroke-width="1.5" stroke-linecap="round" stroke-linejoin="round"/>
</svg>
