<svg width="18" height="18" viewBox="0 0 18 18" fill="none" xmlns="http://www.w3.org/2000/svg">
<path d="M6.75003 14.25C6.75003 14.88 6.84753 15.495 7.02752 16.065C4.14753 15.0675 1.97253 12.42 1.74753 9.32253C1.52253 6.03003 3.42002 2.95503 6.48752 1.66503C7.28253 1.33503 7.68752 1.57503 7.86002 1.74753C8.02502 1.91253 8.25752 2.31003 7.92753 3.06753C7.59002 3.84753 7.42502 4.67253 7.42502 5.52753C7.43253 7.05753 8.03253 8.47503 9.00753 9.56253C7.63503 10.6575 6.75003 12.3525 6.75003 14.25Z" fill="#698754"/>
<path opacity="0.4" d="M15.9075 13.29C14.4225 15.3075 12.0675 16.4925 9.555 16.4925C9.435 16.4925 9.315 16.485 9.195 16.4775C8.445 16.4475 7.7175 16.305 7.0275 16.065C6.8475 15.495 6.75 14.88 6.75 14.25C6.75 12.3525 7.635 10.6575 9.0075 9.5625C10.11 10.8 11.6925 11.6025 13.44 11.6775C13.9125 11.7 14.385 11.6625 14.85 11.58C15.69 11.43 16.0275 11.745 16.1475 11.9475C16.275 12.15 16.41 12.5925 15.9075 13.29Z" fill="#698754"/>
</svg>
