<svg width="24" height="24" viewBox="0 0 24 24" fill="none" xmlns="http://www.w3.org/2000/svg">
<g id="vuesax/linear/lamp-charge">
<g id="lamp-charge">
<path id="Vector" d="M12 7.89001L10.93 9.75001C10.69 10.16 10.89 10.5 11.36 10.5H12.63C13.11 10.5 13.3 10.84 13.06 11.25L12 13.11" stroke="#282E29" stroke-width="1.5" stroke-linecap="round" stroke-linejoin="round"/>
<path id="Vector_2" d="M8.29999 18.0401V16.8801C5.99999 15.4901 4.10999 12.7801 4.10999 9.90005C4.10999 4.95005 8.65999 1.07005 13.8 2.19005C16.06 2.69005 18.04 4.19005 19.07 6.26005C21.16 10.4601 18.96 14.9201 15.73 16.8701V18.0301C15.73 18.3201 15.84 18.9901 14.77 18.9901H9.25999C8.15999 19.0001 8.29999 18.5701 8.29999 18.0401Z" stroke="#282E29" stroke-width="1.5" stroke-linecap="round" stroke-linejoin="round"/>
<path id="Vector_3" d="M8.5 22C10.79 21.35 13.21 21.35 15.5 22" stroke="#282E29" stroke-width="1.5" stroke-linecap="round" stroke-linejoin="round"/>
</g>
</g>
</svg>
