<svg width="23" height="22" viewBox="0 0 23 22" fill="none" xmlns="http://www.w3.org/2000/svg">
<g id="Layer 2">
<path id="Vector" opacity="0.4" d="M7.5 0.25H3.5C1.98122 0.25 0.75 1.48122 0.75 3V7C0.75 8.51879 1.98122 9.75 3.5 9.75H7.5C9.01879 9.75 10.25 8.51879 10.25 7V3C10.25 1.48122 9.01879 0.25 7.5 0.25Z" fill="#277BC0"/>
<path id="Vector_2" d="M7.5 12.25H3.5C1.98122 12.25 0.75 13.4812 0.75 15V19C0.75 20.5188 1.98122 21.75 3.5 21.75H7.5C9.01879 21.75 10.25 20.5188 10.25 19V15C10.25 13.4812 9.01879 12.25 7.5 12.25Z" fill="#277BC0"/>
<path id="Vector_3" d="M19.5 0.25H15.5C13.9812 0.25 12.75 1.48122 12.75 3V7C12.75 8.51879 13.9812 9.75 15.5 9.75H19.5C21.0188 9.75 22.25 8.51879 22.25 7V3C22.25 1.48122 21.0188 0.25 19.5 0.25Z" fill="#277BC0"/>
<path id="Vector_4" opacity="0.4" d="M14.5 20.75C14.3011 20.75 14.1103 20.671 13.9697 20.5303C13.829 20.3897 13.75 20.1989 13.75 20V14C13.75 13.8011 13.829 13.6103 13.9697 13.4697C14.1103 13.329 14.3011 13.25 14.5 13.25C14.6989 13.25 14.8897 13.329 15.0303 13.4697C15.171 13.6103 15.25 13.8011 15.25 14V20C15.25 20.1989 15.171 20.3897 15.0303 20.5303C14.8897 20.671 14.6989 20.75 14.5 20.75Z" fill="#277BC0"/>
<path id="Vector_5" opacity="0.4" d="M20.5 20.75C20.3011 20.75 20.1103 20.671 19.9697 20.5303C19.829 20.3897 19.75 20.1989 19.75 20V14C19.75 13.8011 19.829 13.6103 19.9697 13.4697C20.1103 13.329 20.3011 13.25 20.5 13.25C20.6989 13.25 20.8897 13.329 21.0303 13.4697C21.171 13.6103 21.25 13.8011 21.25 14V20C21.25 20.1989 21.171 20.3897 21.0303 20.5303C20.8897 20.671 20.6989 20.75 20.5 20.75Z" fill="#277BC0"/>
<path id="Vector_6" opacity="0.4" d="M17.5 20.75C17.3011 20.75 17.1103 20.671 16.9697 20.5303C16.829 20.3897 16.75 20.1989 16.75 20V14C16.75 13.8011 16.829 13.6103 16.9697 13.4697C17.1103 13.329 17.3011 13.25 17.5 13.25C17.6989 13.25 17.8897 13.329 18.0303 13.4697C18.171 13.6103 18.25 13.8011 18.25 14V20C18.25 20.1989 18.171 20.3897 18.0303 20.5303C17.8897 20.671 17.6989 20.75 17.5 20.75Z" fill="#277BC0"/>
</g>
</svg>
