<svg width="18" height="18" viewBox="0 0 18 18" fill="none" xmlns="http://www.w3.org/2000/svg">
<path d="M13.86 9.1875C14.07 9.1875 14.25 9.0075 14.235 8.7975C14.0325 6.0825 11.7675 3.9375 9.00002 3.9375C6.23252 3.9375 3.96754 6.075 3.76504 8.7975C3.75004 9.0075 3.93004 9.1875 4.14004 9.1875H13.86Z" fill="#698754"/>
<path opacity="0.4" d="M15 11.8125H3C2.6925 11.8125 2.4375 11.5575 2.4375 11.25C2.4375 10.9425 2.6925 10.6875 3 10.6875H15C15.3075 10.6875 15.5625 10.9425 15.5625 11.25C15.5625 11.5575 15.3075 11.8125 15 11.8125Z" fill="#698754"/>
<path opacity="0.4" d="M13.5 14.0625H4.5C4.1925 14.0625 3.9375 13.8075 3.9375 13.5C3.9375 13.1925 4.1925 12.9375 4.5 12.9375H13.5C13.8075 12.9375 14.0625 13.1925 14.0625 13.5C14.0625 13.8075 13.8075 14.0625 13.5 14.0625Z" fill="#698754"/>
<path opacity="0.4" d="M11.25 16.3125H6.75C6.4425 16.3125 6.1875 16.0575 6.1875 15.75C6.1875 15.4425 6.4425 15.1875 6.75 15.1875H11.25C11.5575 15.1875 11.8125 15.4425 11.8125 15.75C11.8125 16.0575 11.5575 16.3125 11.25 16.3125Z" fill="#698754"/>
</svg>
