<svg width="39" height="39" viewBox="0 0 39 39" fill="none" xmlns="http://www.w3.org/2000/svg">
<g id="Praying">
<g id="Group">
<path id="Vector" d="M35 29.325V33.4375C35 33.7812 34.7187 34.0625 34.375 34.0625H30.6156C28.4469 34.0625 26.4125 32.9343 25.3406 31.0687C25.2937 30.9875 25.25 30.9062 25.2063 30.8218C25.1969 30.8062 25.1875 30.7875 25.1781 30.7687C25.1031 30.6187 25.0313 30.4687 24.9719 30.3187C24.8719 30.0906 24.7906 29.8656 24.7187 29.6406C24.7187 29.6437 24.7187 29.6437 24.7156 29.6469C24.3406 30.6125 23.5937 31.4312 22.5781 31.8781L18.3312 33.775C17.9906 33.9281 17.5906 33.7468 17.4812 33.3875L16.5906 30.5C16.5031 30.2093 16.6344 29.9 16.9031 29.7594L20.0687 28.125C20.0219 27.9875 20.0188 27.9781 19.9969 27.9062C19.9969 27.9031 19.9969 27.9 19.9937 27.8968C19.9906 27.8687 19.9812 27.8375 19.9656 27.8093C19.9656 27.8062 19.9625 27.8031 19.9625 27.8H19.9594C19.8031 27.8281 19.6469 27.8531 19.4906 27.875C19.4281 27.8875 19.3625 27.8969 19.3 27.9062C17.2219 28.2437 15.1437 28.5812 13.0687 28.9187L10.8781 27.3812L10.5938 27.1812V23.2656C11.0375 22.1125 11.725 20.7343 12.8125 19.375C17.2156 13.8593 26.7406 10.4 30.9375 14.375C33.8 17.0843 33.8156 22.9062 31.25 28.4375C32.3094 28.525 33.3687 28.6156 34.4281 28.7031C34.75 28.7281 35 29 35 29.325Z" fill="white"/>
<path id="Vector_2" d="M25.9219 29.3L25.9209 29.3009C25.9331 28.8656 25.8856 28.4312 25.775 28.0156C25.7012 27.7397 25.5809 27.429 25.4453 27.1122C25.2712 26.7056 25.2212 26.2584 25.3069 25.8246C25.4731 24.9815 25.7728 23.555 26.1144 22.7984C26.2225 22.5734 25.8934 22.3906 25.7587 22.6009C25.394 23.1778 25.084 23.7872 24.8337 24.4212C24.7315 24.68 24.3712 24.6903 24.2587 24.4356L22.9094 21.3843C22.8719 21.3031 22.7781 21.2593 22.6906 21.2875C22.5969 21.3187 22.5469 21.4187 22.5781 21.5125L24.0875 26.0343L24.4656 27.1656C24.7844 27.95 24.9156 28.825 24.7187 29.6406C24.79 29.8656 24.8772 30.0915 24.9728 30.3178L24.9719 30.3187C25.0312 30.4687 25.1031 30.6187 25.1781 30.7687C25.1875 30.7875 25.1969 30.8062 25.2062 30.8218C25.25 30.9062 25.2937 30.9875 25.3406 31.0687C26.4125 32.9343 28.4469 34.0625 30.6156 34.0625H34.375C34.7187 34.0625 35 33.7812 35 33.4375C26.9219 33.4375 25.9219 29.3 25.9219 29.3ZM19.9606 27.7971C18.8125 26.055 17.8212 24.1997 17 22.2687C16.9281 22.1062 16.6812 22.2093 16.7406 22.3718C17.18 23.5812 17.685 24.7684 18.2528 25.9259C18.4372 26.3015 18.2003 26.7481 17.7869 26.8131L14.4053 27.3456C14.084 27.3962 13.7856 27.1893 13.7015 26.8753C13.1872 24.9553 11.9347 24.5562 11.9347 24.5562L10.8784 27.3812L13.069 28.9187C15.144 28.5812 17.2222 28.2437 19.3003 27.9062C19.519 27.8718 19.7409 27.8375 19.9597 27.8C19.96 27.7987 19.96 27.7987 19.9606 27.7971Z" fill="#DFE7EB"/>
<path id="Vector_3" d="M7.1875 34.0625C10.4667 34.0625 13.125 31.4042 13.125 28.125C13.125 24.8458 10.4667 22.1875 7.1875 22.1875C3.90831 22.1875 1.25 24.8458 1.25 28.125C1.25 31.4042 3.90831 34.0625 7.1875 34.0625Z" fill="#F9C87F"/>
<path id="Vector_4" d="M9.65625 33.5218C8.90312 33.8687 8.06875 34.0625 7.1875 34.0625C3.90938 34.0625 1.25 31.4031 1.25 28.125C1.25 26.9812 1.575 25.9124 2.1375 25.0062C2.1375 25.0031 2.1375 25 2.1375 25C2.5875 24.2781 3.19063 23.6562 3.89688 23.1843C4.96875 24.825 6.3875 27.0374 7.09687 28.2781C7.12812 28.3343 7.15937 28.3875 7.1875 28.4375C7.84062 29.5968 8.73437 31.3124 9.65625 33.5218Z" fill="white"/>
<path id="Vector_5" d="M9.65625 33.5218C8.90312 33.8687 8.06875 34.0625 7.1875 34.0625C3.90938 34.0625 1.25 31.4031 1.25 28.125C1.25 26.9812 1.575 25.9125 2.1375 25.0062C1.77531 25.9509 -0.565313 32.414 9.65625 33.5218Z" fill="#DFE7EB"/>
<path id="Vector_6" d="M10.5469 23.2312C10.364 23.4734 10.1828 23.7159 10.0009 23.9581C9.83779 24.1756 9.54935 24.2681 9.29498 24.1709C8.70623 23.9456 8.1031 24.0513 7.81248 24.375C7.45498 24.7741 7.47341 25.6091 8.02591 26.2194C8.23373 26.4491 8.25748 26.7894 8.06716 27.0338C7.74154 27.4519 7.39498 27.9038 7.09685 28.2781C6.38748 27.0375 4.96873 24.825 3.89685 23.1844C4.83748 22.5531 5.97185 22.1875 7.18748 22.1875C8.43435 22.1875 9.59373 22.5719 10.5469 23.2312Z" fill="#232437"/>
<path id="Vector_7" d="M17.5031 33.4656C16.85 33.7375 16.0156 34.0625 15.8375 34.0625H13.8156C13.5188 34.0625 13.3219 33.7312 13.3219 33.3875C13.3219 33.2219 13.3656 33.0562 13.4656 32.9187C13.9688 32.2312 14.5813 31.7156 15.2563 31.4094L16.6719 30.7656L17.5031 33.4656Z" fill="#F9C87F"/>
<path id="Vector_8" d="M17.5031 33.4656C16.85 33.7375 16.0156 34.0625 15.8375 34.0625C16.9469 33.3438 16.6719 30.7656 16.6719 30.7656L17.5031 33.4656Z" fill="#E08E15"/>
<path id="Vector_9" d="M38.75 30.7406V34.0625H37.2375C37.2281 33.9906 36.9563 32.6156 35.7281 32.175C35.4688 32.0781 35.2187 32.0469 35 32.0469V29.0625C35.725 29.1312 36.4469 29.1969 37.1719 29.2656C38.0937 29.4188 38.75 30.0313 38.75 30.7406Z" fill="#F9C87F"/>
<path id="Vector_10" d="M37.2375 34.0624C37.2281 33.9906 36.9563 32.6156 35.7281 32.1749C35.4688 32.0781 35.2188 32.0468 35 32.0468V30.9249C35 30.9249 37.6469 31.5343 37.2375 34.0624Z" fill="#E08E15"/>
<path id="Vector_11" d="M38.125 38.75H1.875C1.52969 38.75 1.25 38.4703 1.25 38.125V34.6875C1.25 34.3422 1.52969 34.0625 1.875 34.0625H38.75V38.125C38.75 38.4703 38.4703 38.75 38.125 38.75Z" fill="#E08E15"/>
<path id="Vector_12" d="M34.0625 37.5H25.3125C25.1397 37.5 25 37.36 25 37.1875C25 37.015 25.1397 36.875 25.3125 36.875H34.0625C34.2353 36.875 34.375 37.015 34.375 37.1875C34.375 37.36 34.2353 37.5 34.0625 37.5Z" fill="white"/>
<path id="Vector_13" d="M38.75 35.9375H1.25V34.6875C1.25 34.3422 1.52969 34.0625 1.875 34.0625H38.75V35.9375Z" fill="#F0C419"/>
<path id="Vector_14" d="M13.7406 8.89056C12.9938 11.7531 10.4062 13.7499 7.44375 13.7499C3.85625 13.7499 0.9375 10.8312 0.9375 7.24368C0.9375 4.28118 2.93437 1.69368 5.79687 0.94681C5.90312 0.918685 6.01875 0.949935 6.09688 1.02806C6.175 1.10618 6.20625 1.22181 6.17813 1.32806C6.05 1.81556 5.9875 2.31869 5.9875 2.81869C5.9875 6.06244 8.625 8.69993 11.8687 8.69993C12.3687 8.69993 12.8719 8.63743 13.3594 8.50931C13.4656 8.48118 13.5812 8.51243 13.6594 8.59056C13.7375 8.66868 13.7688 8.78431 13.7406 8.89056Z" fill="#F0C419"/>
<path id="Vector_15" d="M8.69375 12.8125C5.10625 12.8125 2.1875 9.89379 2.1875 6.30629C2.1875 4.48379 2.94531 2.80504 4.19344 1.60754C2.21719 2.74723 0.9375 4.87411 0.9375 7.24379C0.9375 10.8313 3.85625 13.75 7.44375 13.75C9.16937 13.75 10.7647 13.0691 11.9463 11.9375C10.9809 12.4947 9.86812 12.8125 8.69375 12.8125Z" fill="#E08E15"/>
<path id="Vector_16" d="M14.2581 3.12561L13.0728 3.98624C12.9634 4.06561 12.9175 4.20655 12.9591 4.3353L13.4113 5.73186C13.455 5.85998 13.4081 6.00061 13.2988 6.07874C13.1894 6.15999 13.0425 6.15999 12.93 6.07874L11.745 5.21842C11.6356 5.13905 11.4872 5.13905 11.3778 5.21842L10.1928 6.07874C10.1397 6.11936 10.0741 6.13811 10.0084 6.13811C9.94594 6.13811 9.88032 6.11936 9.82407 6.07874C9.71469 6.00061 9.67094 5.85998 9.71157 5.73186L10.1634 4.3353C10.205 4.20655 10.1591 4.06561 10.0497 3.98624L8.86438 3.12561C8.75501 3.04436 8.71126 2.90374 8.75188 2.77561C8.79251 2.64749 8.91438 2.55999 9.04876 2.55999H10.5153C10.6506 2.55999 10.7709 2.4728 10.8125 2.34374L11.2644 0.95061C11.305 0.822485 11.4269 0.734985 11.5613 0.734985C11.6988 0.734985 11.8175 0.822485 11.8581 0.95061L12.3128 2.34436C12.3547 2.4728 12.4747 2.55999 12.61 2.55999H14.0738C14.2113 2.55999 14.33 2.64749 14.3738 2.77561C14.4144 2.90405 14.3675 3.04436 14.2581 3.12561Z" fill="#F0C419"/>
</g>
</g>
</svg>
