<svg width="412" height="353" viewBox="0 0 412 353" fill="none" xmlns="http://www.w3.org/2000/svg">
<path d="M482.84 39.3598C461 47.5498 437.34 47.5498 416.41 57.5598C393.66 67.5698 370.91 75.7598 346.34 82.1298C316.31 89.4098 263.23 84.2501 224.4 55.7398C209.84 42.0898 189.82 26.6198 172.53 39.3598C167.98 42.9998 163.43 47.5498 157.06 45.7298C137.04 40.2698 128.85 21.1598 111.56 11.1498C97.91 2.95975 84.26 -4.32025 67.88 3.86975C30.57 23.8898 -7.64999 35.7198 -49.51 42.0898C-52.24 42.9998 -56.79 43.9098 -58.61 44.8198C-90.1597 47.8501 -121.7 49.661 -153.25 49.9977V245H529.25V24.1992C522.534 25.5187 515.882 27.1294 509.23 29.3498C501.04 32.0798 491.03 35.7198 482.84 39.3598Z" fill="url(#paint0_linear_714_38067)"/>
<path d="M492.85 110.469C449.17 125.029 404.58 149.599 357.26 135.949C339.97 131.399 319.04 122.299 302.66 131.399C255.34 158.699 200.74 154.149 149.78 155.969C120.36 156.615 79.0275 156.196 53.32 137.769C12.37 108.421 -24.94 122.299 -64.07 111.379C-92.8988 103.234 -123.02 98.1112 -153.25 96V352.429H529.25V110.615C517.211 107.493 504.853 106.474 492.85 110.469Z" fill="url(#paint1_linear_714_38067)"/>
<path d="M218.859 156.543C218.886 156.243 215.31 143.03 217.285 131.837L215.201 132.128C215.201 132.128 213.354 146.078 215.474 156.807C217.021 157.781 218.859 156.534 218.859 156.534V156.543Z" fill="#BED4AE"/>
<path d="M210.023 140.063C210.232 139.135 210.66 138.252 211.16 137.697C210.732 137.861 210.359 138.471 210.359 138.471C210.359 138.471 210.969 137.088 211.888 136.441C211.561 136.441 210.987 137.015 210.987 137.015C210.987 137.015 211.761 135.905 212.634 135.504C212.289 135.44 211.36 136.059 211.36 136.059C211.36 136.059 212.753 134.813 213.49 134.649C213.098 134.485 212.034 135.022 212.034 135.022C212.034 135.022 213.108 134.139 214.2 134.057C213.817 133.912 212.807 134.267 212.807 134.267C212.807 134.267 213.544 133.684 215 133.457C214.536 133.347 213.726 133.584 213.726 133.584C213.726 133.584 215.173 132.792 216.402 132.838C216.402 132.838 216.402 134.075 215.828 135.249C215.974 134.576 216.101 133.675 216.101 133.675C215.519 135.877 215.064 136.651 215.064 136.651C215.355 135.704 215.574 134.731 215.574 134.731C214.645 137.461 214.573 138.343 214.573 138.425C214.463 137.816 214.882 135.968 214.909 135.923C214.482 136.978 214.3 138.243 214.254 138.662C214.045 138.28 214.327 136.915 214.327 136.915C213.972 138.334 213.772 138.762 213.863 139.563C213.635 139.226 213.681 137.998 213.681 137.998C213.399 139.135 213.444 140.227 213.481 140.518C213.28 140.118 213.208 139.535 213.208 138.807C212.935 139.663 213.026 140.755 213.126 141.137C212.944 140.991 212.698 140.291 212.771 139.581C212.507 140.464 212.543 141.31 212.643 141.81C212.489 141.683 212.334 140.928 212.361 140.364C212.198 141.073 212.134 141.783 212.207 142.311C212.079 142.184 211.997 141.164 211.997 141.164C211.824 142.347 211.988 143.048 211.997 143.139C211.806 142.802 211.724 141.965 211.724 141.965C211.724 141.965 211.624 143.203 211.87 143.985C211.652 143.867 211.479 143.121 211.479 143.112C211.479 143.112 211.442 144.386 211.633 145.059C211.36 144.768 210.869 143.112 210.833 142.593C210.76 143.703 210.996 144.468 210.996 144.468C210.478 143.64 210.66 141.656 210.66 141.656C210.66 141.656 210.387 142.165 210.469 143.266C210.223 142.457 210.359 141.064 210.569 140.318C210.35 140.527 210.132 141.528 210.132 141.528C210.132 140.646 210.368 139.572 210.732 138.989C210.459 139.208 210.014 140.063 210.014 140.063H210.023Z" fill="#BED4AE"/>
<path d="M221.581 140.973C221.517 140.027 221.235 139.081 220.826 138.462C221.226 138.689 221.49 139.354 221.49 139.354C221.49 139.354 221.108 137.889 220.298 137.115C220.616 137.161 221.099 137.825 221.099 137.825C221.099 137.825 220.507 136.605 219.706 136.069C220.061 136.069 220.88 136.815 220.88 136.815C220.88 136.815 219.706 135.368 218.997 135.086C219.406 134.986 220.371 135.677 220.371 135.677C220.371 135.677 219.442 134.64 218.387 134.385C218.787 134.303 219.725 134.813 219.725 134.813C219.725 134.813 219.088 134.13 217.686 133.675C218.159 133.639 218.924 134.003 218.924 134.003C218.924 134.003 217.622 132.993 216.394 132.847C216.394 132.847 216.212 134.067 216.585 135.322C216.549 134.631 216.567 133.73 216.567 133.73C216.803 135.996 217.131 136.833 217.131 136.833C216.995 135.85 216.922 134.858 216.922 134.858C217.413 137.697 217.349 138.589 217.34 138.662C217.55 138.08 217.413 136.187 217.395 136.141C217.659 137.252 217.632 138.535 217.613 138.953C217.886 138.607 217.814 137.215 217.814 137.215C217.941 138.671 218.068 139.126 217.859 139.9C218.141 139.599 218.278 138.38 218.278 138.38C218.378 139.545 218.159 140.619 218.077 140.901C218.341 140.537 218.496 139.972 218.614 139.254C218.751 140.136 218.496 141.201 218.332 141.574C218.542 141.465 218.887 140.801 218.924 140.091C219.042 141.001 218.878 141.829 218.696 142.311C218.869 142.211 219.142 141.483 219.206 140.928C219.26 141.656 219.206 142.366 219.051 142.875C219.197 142.775 219.433 141.774 219.433 141.774C219.415 142.966 219.151 143.64 219.115 143.722C219.351 143.421 219.57 142.602 219.57 142.602C219.57 142.602 219.479 143.84 219.115 144.577C219.351 144.495 219.634 143.776 219.634 143.776C219.634 143.776 219.47 145.032 219.179 145.678C219.488 145.432 220.243 143.876 220.352 143.367C220.252 144.477 219.897 145.187 219.897 145.187C220.544 144.45 220.671 142.457 220.671 142.457C220.671 142.457 220.862 143.003 220.607 144.077C220.971 143.312 221.053 141.92 220.962 141.146C221.144 141.392 221.208 142.411 221.208 142.411C221.353 141.547 221.281 140.446 221.008 139.809C221.235 140.073 221.554 140.983 221.554 140.983L221.581 140.973Z" fill="#BED4AE"/>
<path d="M207.284 135.605C207.939 134.913 208.749 134.358 209.468 134.139C209.013 134.067 208.385 134.403 208.385 134.403C208.385 134.403 209.613 133.521 210.732 133.43C210.45 133.266 209.659 133.466 209.659 133.466C209.659 133.466 210.887 132.893 211.843 132.993C211.57 132.756 210.459 132.82 210.459 132.82C210.459 132.82 212.289 132.447 213.017 132.683C212.762 132.338 211.579 132.265 211.579 132.265C211.579 132.265 212.953 132.046 213.936 132.529C213.681 132.21 212.634 132.001 212.634 132.001C212.634 132.001 213.563 131.874 214.928 132.41C214.582 132.083 213.763 131.874 213.763 131.874C213.763 131.874 215.41 131.928 216.447 132.583C216.447 132.583 215.81 133.648 214.727 134.376C215.191 133.866 215.756 133.157 215.756 133.157C214.136 134.758 213.344 135.195 213.344 135.195C214.072 134.531 214.764 133.803 214.764 133.803C212.58 135.686 212.07 136.414 212.025 136.478C212.234 135.896 213.544 134.522 213.581 134.494C212.671 135.186 211.879 136.187 211.624 136.524C211.633 136.087 212.571 135.059 212.571 135.059C211.551 136.105 211.16 136.369 210.833 137.106C210.805 136.697 211.47 135.668 211.47 135.668C210.651 136.505 210.132 137.479 210.023 137.734C210.05 137.288 210.287 136.751 210.66 136.123C209.986 136.715 209.513 137.707 209.404 138.098C209.313 137.88 209.468 137.152 209.886 136.578C209.213 137.206 208.812 137.952 208.649 138.435C208.576 138.244 208.831 137.516 209.131 137.042C208.63 137.57 208.212 138.143 208.012 138.644C207.966 138.471 208.412 137.552 208.412 137.552C207.666 138.48 207.447 139.172 207.42 139.254C207.42 138.871 207.784 138.098 207.784 138.098C207.784 138.098 207.074 139.117 206.883 139.909C206.756 139.69 206.992 138.962 206.992 138.962C206.992 138.962 206.319 140.036 206.137 140.719C206.046 140.337 206.465 138.653 206.701 138.189C206.073 139.108 205.891 139.882 205.891 139.882C205.864 138.899 207.029 137.288 207.029 137.288C207.029 137.288 206.537 137.588 206.046 138.58C206.246 137.761 207.065 136.633 207.629 136.096C207.329 136.169 206.637 136.915 206.637 136.915C207.074 136.151 207.83 135.35 208.448 135.031C208.103 135.086 207.284 135.595 207.284 135.595V135.605Z" fill="#BED4AE"/>
<path d="M207.384 129.298C208.321 129.162 209.304 129.235 209.996 129.508C209.686 129.162 208.986 129.043 208.986 129.043C208.986 129.043 210.496 129.116 211.424 129.744C211.315 129.444 210.56 129.107 210.56 129.107C210.56 129.107 211.879 129.426 212.562 130.099C212.498 129.753 211.588 129.107 211.588 129.107C211.588 129.107 213.253 129.953 213.672 130.59C213.69 130.163 212.798 129.371 212.798 129.371C212.798 129.371 214.009 130.054 214.473 131.045C214.473 130.636 213.781 129.826 213.781 129.826C213.781 129.826 214.582 130.299 215.319 131.582C215.255 131.109 214.737 130.436 214.737 130.436C214.737 130.436 215.993 131.5 216.393 132.665C216.393 132.665 215.237 133.102 213.936 133.002C214.618 132.893 215.501 132.693 215.501 132.693C213.235 132.938 212.353 132.793 212.353 132.793C213.335 132.729 214.327 132.583 214.327 132.583C211.452 132.702 210.596 132.947 210.523 132.975C211.051 132.656 212.926 132.383 212.98 132.392C211.843 132.365 210.596 132.656 210.187 132.765C210.469 132.429 211.843 132.201 211.843 132.201C210.396 132.383 209.923 132.347 209.213 132.72C209.441 132.383 210.605 131.992 210.605 131.992C209.441 132.137 208.44 132.574 208.185 132.711C208.485 132.374 209.004 132.101 209.686 131.837C208.794 131.883 207.803 132.365 207.484 132.602C207.548 132.374 208.121 131.901 208.813 131.71C207.894 131.783 207.12 132.119 206.683 132.392C206.747 132.201 207.393 131.792 207.93 131.61C207.211 131.71 206.529 131.901 206.055 132.165C206.128 132.001 207.056 131.555 207.056 131.555C205.892 131.819 205.291 132.219 205.218 132.274C205.464 131.974 206.219 131.601 206.219 131.601C206.219 131.601 205.027 131.946 204.381 132.456C204.417 132.21 205.054 131.783 205.054 131.783C205.054 131.783 203.853 132.201 203.289 132.62C203.462 132.265 204.827 131.209 205.309 130.982C204.244 131.309 203.617 131.801 203.617 131.801C204.208 131.018 206.119 130.472 206.119 130.472C206.119 130.472 205.546 130.399 204.545 130.873C205.209 130.354 206.556 129.981 207.329 129.908C207.056 129.781 206.037 129.935 206.037 129.935C206.856 129.617 207.948 129.453 208.622 129.589C208.321 129.417 207.357 129.307 207.357 129.307L207.384 129.298Z" fill="#BED4AE"/>
<path d="M213.299 123.392C213.991 124.047 214.546 124.857 214.764 125.576C214.837 125.121 214.5 124.493 214.5 124.493C214.5 124.493 215.383 125.722 215.474 126.841C215.647 126.559 215.437 125.767 215.437 125.767C215.437 125.767 216.011 126.996 215.911 127.951C216.147 127.678 216.084 126.568 216.084 126.568C216.084 126.568 216.457 128.397 216.22 129.125C216.566 128.87 216.639 127.687 216.639 127.687C216.639 127.687 216.857 129.062 216.375 130.044C216.693 129.79 216.903 128.743 216.903 128.743C216.903 128.743 217.03 129.671 216.493 131.036C216.821 130.69 217.03 129.871 217.03 129.871C217.03 129.871 216.975 131.519 216.311 132.556C216.311 132.556 215.255 131.919 214.518 130.836C215.028 131.3 215.738 131.864 215.738 131.864C214.145 130.245 213.699 129.453 213.699 129.453C214.364 130.181 215.092 130.872 215.092 130.872C213.208 128.688 212.489 128.179 212.416 128.133C212.999 128.343 214.373 129.653 214.4 129.689C213.708 128.779 212.707 127.988 212.371 127.733C212.808 127.742 213.836 128.679 213.836 128.679C212.789 127.66 212.525 127.269 211.788 126.941C212.198 126.914 213.226 127.578 213.226 127.578C212.389 126.759 211.424 126.241 211.16 126.131C211.606 126.159 212.143 126.395 212.771 126.768C212.18 126.095 211.188 125.622 210.796 125.513C211.015 125.422 211.743 125.576 212.316 125.995C211.688 125.321 210.942 124.921 210.46 124.757C210.651 124.684 211.379 124.939 211.852 125.24C211.324 124.739 210.751 124.32 210.25 124.12C210.423 124.075 211.342 124.521 211.342 124.521C210.414 123.775 209.723 123.556 209.641 123.529C210.023 123.529 210.796 123.893 210.796 123.893C210.796 123.893 209.786 123.174 208.986 122.992C209.204 122.864 209.932 123.101 209.932 123.101C209.932 123.101 208.858 122.428 208.176 122.246C208.558 122.155 210.241 122.573 210.705 122.81C209.786 122.182 209.013 122 209.013 122C209.996 121.973 211.606 123.137 211.606 123.137C211.606 123.137 211.306 122.646 210.314 122.155C211.133 122.355 212.262 123.174 212.798 123.738C212.726 123.438 211.979 122.746 211.979 122.746C212.744 123.183 213.545 123.938 213.863 124.557C213.809 124.211 213.299 123.392 213.299 123.392Z" fill="#BED4AE"/>
<path d="M220.678 123.975C219.896 124.512 219.222 125.231 218.895 125.904C218.895 125.44 219.322 124.876 219.322 124.876C219.322 124.876 218.257 125.95 217.994 127.042C217.866 126.741 218.194 125.986 218.194 125.986C218.194 125.986 217.439 127.114 217.384 128.07C217.193 127.77 217.429 126.678 217.429 126.678C217.429 126.678 216.774 128.425 216.892 129.18C216.592 128.88 216.71 127.697 216.71 127.697C216.71 127.697 216.283 129.025 216.61 130.063C216.337 129.762 216.292 128.689 216.292 128.689C216.292 128.689 216.019 129.58 216.346 131.018C216.073 130.627 216.001 129.781 216.001 129.781C216.001 129.781 215.791 131.41 216.292 132.547C216.292 132.547 217.438 132.083 218.33 131.127C217.757 131.51 216.965 131.956 216.965 131.956C218.794 130.609 219.35 129.899 219.35 129.899C218.576 130.518 217.748 131.082 217.748 131.082C219.95 129.216 220.742 128.825 220.815 128.798C220.205 128.916 218.64 129.99 218.612 130.026C219.431 129.235 220.551 128.607 220.924 128.416C220.487 128.361 219.322 129.125 219.322 129.125C220.514 128.279 220.842 127.933 221.615 127.724C221.215 127.633 220.096 128.134 220.096 128.134C221.042 127.451 222.089 127.096 222.362 127.023C221.916 126.978 221.351 127.133 220.669 127.396C221.361 126.823 222.407 126.514 222.807 126.468C222.607 126.35 221.861 126.386 221.233 126.705C221.961 126.141 222.762 125.859 223.262 125.768C223.09 125.667 222.325 125.804 221.816 126.031C222.416 125.613 223.053 125.294 223.572 125.176C223.408 125.103 222.425 125.404 222.425 125.404C223.463 124.812 224.173 124.703 224.264 124.685C223.881 124.63 223.071 124.867 223.071 124.867C223.071 124.867 224.182 124.321 225.001 124.257C224.81 124.093 224.054 124.211 224.045 124.211C224.045 124.211 225.21 123.711 225.911 123.638C225.547 123.493 223.818 123.638 223.317 123.802C224.327 123.329 225.119 123.265 225.119 123.265C224.154 123.083 222.38 123.984 222.38 123.984C222.38 123.984 222.753 123.547 223.809 123.21C222.971 123.283 221.725 123.92 221.106 124.384C221.224 124.102 222.07 123.529 222.07 123.529C221.251 123.847 220.341 124.466 219.932 125.021C220.041 124.694 220.669 123.957 220.669 123.957L220.678 123.975Z" fill="#BED4AE"/>
<path d="M225.657 130.736C224.747 130.454 223.764 130.372 223.036 130.536C223.391 130.244 224.101 130.235 224.101 130.235C224.101 130.235 222.599 130.071 221.58 130.545C221.735 130.263 222.526 130.044 222.526 130.044C222.526 130.044 221.179 130.153 220.388 130.708C220.506 130.372 221.507 129.88 221.507 129.88C221.507 129.88 219.733 130.463 219.214 131.018C219.268 130.599 220.26 129.944 220.26 129.944C220.26 129.944 218.959 130.435 218.34 131.336C218.404 130.936 219.214 130.235 219.214 130.235C219.214 130.235 218.349 130.581 217.421 131.728C217.558 131.273 218.167 130.69 218.167 130.69C218.167 130.69 216.757 131.546 216.184 132.638C216.184 132.638 217.257 133.247 218.559 133.347C217.903 133.129 217.066 132.792 217.066 132.792C219.259 133.384 220.169 133.384 220.169 133.384C219.205 133.165 218.249 132.865 218.249 132.865C221.079 133.429 221.88 133.802 221.944 133.848C221.471 133.448 219.66 132.883 219.614 132.883C220.743 133.038 221.935 133.52 222.317 133.693C222.089 133.32 220.77 132.883 220.77 132.883C222.171 133.293 222.645 133.329 223.291 133.812C223.118 133.448 222.026 132.874 222.026 132.874C223.154 133.193 224.073 133.793 224.301 133.966C224.055 133.593 223.591 133.238 222.954 132.874C223.828 133.065 224.729 133.684 225.011 133.975C224.983 133.739 224.492 133.184 223.846 132.892C224.738 133.111 225.456 133.566 225.839 133.903C225.811 133.702 225.229 133.193 224.728 132.929C225.429 133.138 226.066 133.438 226.485 133.766C226.439 133.593 225.593 133.011 225.593 133.011C226.703 133.457 227.231 133.939 227.295 134.003C227.104 133.675 226.412 133.175 226.412 133.175C226.412 133.175 227.531 133.702 228.086 134.312C228.086 134.066 227.531 133.539 227.531 133.539C227.531 133.539 228.651 134.139 229.142 134.64C229.024 134.257 227.841 133.002 227.404 132.71C228.405 133.202 228.942 133.784 228.942 133.784C228.487 132.92 226.676 132.083 226.676 132.083C226.676 132.083 227.258 132.101 228.168 132.72C227.586 132.101 226.321 131.527 225.566 131.336C225.857 131.254 226.84 131.564 226.84 131.564C226.084 131.118 225.029 130.79 224.337 130.818C224.665 130.699 225.629 130.736 225.629 130.736H225.657Z" fill="#BED4AE"/>
<path d="M224.701 136.979C224.164 136.196 223.445 135.523 222.772 135.195C223.236 135.195 223.8 135.623 223.8 135.623C223.8 135.623 222.726 134.558 221.634 134.294C221.935 134.167 222.69 134.495 222.69 134.495C222.69 134.495 221.562 133.739 220.606 133.685C220.906 133.494 221.998 133.73 221.998 133.73C221.998 133.73 220.251 133.075 219.496 133.193C219.796 132.893 220.979 133.011 220.979 133.011C220.979 133.011 219.651 132.584 218.613 132.911C218.914 132.638 219.987 132.593 219.987 132.593C219.987 132.593 219.095 132.32 217.658 132.638C218.049 132.365 218.895 132.292 218.895 132.292C218.895 132.292 217.266 132.083 216.129 132.574C216.129 132.574 216.584 133.721 217.549 134.613C217.166 134.04 216.72 133.248 216.72 133.248C218.067 135.077 218.777 135.632 218.777 135.632C218.158 134.859 217.594 134.03 217.594 134.03C219.459 136.233 219.851 137.024 219.878 137.097C219.76 136.487 218.686 134.922 218.65 134.895C219.441 135.714 220.069 136.833 220.26 137.206C220.315 136.77 219.551 135.605 219.551 135.605C220.397 136.797 220.743 137.124 220.952 137.898C221.043 137.498 220.542 136.378 220.542 136.378C221.225 137.325 221.58 138.371 221.644 138.644C221.689 138.198 221.534 137.634 221.27 136.952C221.844 137.643 222.153 138.69 222.199 139.09C222.317 138.89 222.281 138.144 221.962 137.516C222.526 138.244 222.799 139.045 222.899 139.545C222.999 139.372 222.863 138.608 222.635 138.098C223.054 138.699 223.373 139.336 223.491 139.854C223.564 139.691 223.263 138.708 223.263 138.708C223.855 139.745 223.964 140.455 223.982 140.546C224.037 140.164 223.809 139.354 223.809 139.354C223.809 139.354 224.355 140.464 224.419 141.283C224.583 141.092 224.465 140.337 224.465 140.337C224.465 140.337 224.965 141.502 225.038 142.202C225.183 141.838 225.038 140.109 224.883 139.609C225.356 140.619 225.42 141.411 225.42 141.411C225.602 140.446 224.701 138.671 224.701 138.671C224.701 138.671 225.138 139.045 225.475 140.1C225.402 139.263 224.765 138.016 224.301 137.397C224.583 137.516 225.156 138.362 225.156 138.362C224.838 137.543 224.219 136.633 223.664 136.224C223.991 136.333 224.728 136.961 224.728 136.961L224.701 136.979Z" fill="#BED4AE"/>
<path d="M31.8806 184.057C31.8806 183.597 25.1532 164.059 26.9879 146.988L23.8759 147.643C23.8759 147.643 22.5174 168.848 26.8093 184.804C29.2449 186.108 31.8806 184.052 31.8806 184.052V184.057Z" fill="#BED5AE"/>
<path d="M16.896 160.129C17.1233 158.711 17.6646 157.331 18.3682 156.449C17.7349 156.741 17.2478 157.699 17.2478 157.699C17.2478 157.699 18.0218 155.556 19.3424 154.49C18.8498 154.517 18.038 155.448 18.038 155.448C18.038 155.448 19.088 153.689 20.3599 152.996C19.8295 152.936 18.4926 153.954 18.4926 153.954C18.4926 153.954 20.4573 151.935 21.5614 151.605C20.9552 151.394 19.4127 152.314 19.4127 152.314C19.4127 152.314 20.9444 150.874 22.5735 150.642C21.9836 150.463 20.5006 151.096 20.5006 151.096C20.5006 151.096 21.5452 150.149 23.7155 149.657C23.0065 149.532 21.8049 149.981 21.8049 149.981C21.8049 149.981 23.8995 148.644 25.7613 148.585C25.7613 148.585 25.875 150.447 25.1443 152.276C25.2905 151.242 25.3879 149.879 25.3879 149.879C24.7276 153.25 24.1214 154.468 24.1214 154.468C24.4624 153.012 24.7005 151.524 24.7005 151.524C23.5802 155.729 23.5585 157.071 23.5639 157.185C23.3366 156.281 23.7858 153.451 23.8129 153.386C23.2717 155.015 23.131 156.952 23.1093 157.58C22.7521 157.023 23.039 154.944 23.039 154.944C22.6547 157.12 22.3949 157.786 22.6114 158.977C22.2325 158.495 22.1838 156.638 22.1838 156.638C21.8699 158.376 22.0593 160.027 22.1405 160.449C21.7941 159.87 21.6318 158.998 21.556 157.899C21.2259 159.215 21.4802 160.844 21.6751 161.423C21.3774 161.228 20.9498 160.189 20.9823 159.117C20.6792 160.476 20.8199 161.742 21.0202 162.495C20.7712 162.321 20.4681 161.196 20.4411 160.346C20.2625 161.434 20.2408 162.505 20.4086 163.29C20.2083 163.117 19.981 161.58 19.981 161.58C19.8403 163.377 20.1542 164.416 20.1921 164.551C19.8728 164.069 19.6617 162.803 19.6617 162.803C19.6617 162.803 19.6346 164.676 20.0838 165.834C19.7429 165.677 19.4127 164.567 19.4127 164.562C19.4127 164.562 19.4831 166.478 19.8403 167.479C19.4019 167.073 18.4872 164.627 18.3844 163.842C18.3844 165.531 18.8174 166.646 18.8174 166.646C17.946 165.45 18.0218 162.44 18.0218 162.44C18.0218 162.44 17.6646 163.236 17.8973 164.892C17.4481 163.696 17.513 161.591 17.7566 160.443C17.4427 160.784 17.2153 162.316 17.2153 162.316C17.1125 160.99 17.3723 159.345 17.8648 158.43C17.4806 158.793 16.8906 160.124 16.8906 160.124L16.896 160.129Z" fill="#BED5AE"/>
<path d="M34.3971 160.319C34.2022 158.895 33.688 157.504 33.0061 156.611C33.6285 156.92 34.0994 157.883 34.0994 157.883C34.0994 157.883 33.3741 155.724 32.0752 154.625C32.5623 154.663 33.3579 155.61 33.3579 155.61C33.3579 155.61 32.3512 153.829 31.0902 153.11C31.626 153.061 32.9357 154.111 32.9357 154.111C32.9357 154.111 31.0144 152.049 29.9211 151.697C30.5327 151.497 32.0535 152.455 32.0535 152.455C32.0535 152.455 30.5544 150.983 28.9307 150.712C29.526 150.544 30.9982 151.215 30.9982 151.215C30.9982 151.215 29.9752 150.246 27.8103 149.705C28.5193 149.597 29.7154 150.073 29.7154 150.073C29.7154 150.073 27.6533 148.688 25.7915 148.59C25.7915 148.59 25.64 150.447 26.3274 152.298C26.2029 151.259 26.1325 149.895 26.1325 149.895C26.717 153.277 27.3016 154.511 27.3016 154.511C26.9931 153.05 26.7874 151.551 26.7874 151.551C27.8157 155.778 27.8103 157.12 27.7995 157.239C28.0485 156.341 27.6588 153.499 27.6317 153.434C28.1405 155.074 28.2325 157.012 28.2487 157.645C28.6168 157.093 28.3732 155.009 28.3732 155.009C28.7142 157.19 28.9523 157.862 28.7088 159.052C29.0984 158.576 29.185 156.725 29.185 156.72C29.4611 158.462 29.2391 160.108 29.1417 160.53C29.4989 159.956 29.683 159.09 29.7804 157.991C30.0835 159.312 29.7966 160.941 29.5855 161.509C29.8832 161.32 30.3378 160.292 30.327 159.215C30.5976 160.579 30.4353 161.845 30.2134 162.586C30.4623 162.419 30.7979 161.298 30.8358 160.449C30.9927 161.536 30.9927 162.614 30.8033 163.393C31.009 163.225 31.2688 161.693 31.2688 161.693C31.3716 163.496 31.0306 164.529 30.9927 164.659C31.3229 164.183 31.561 162.927 31.561 162.927C31.561 162.927 31.5448 164.8 31.0739 165.947C31.4203 165.796 31.7721 164.692 31.7721 164.692C31.7721 164.692 31.6584 166.608 31.285 167.598C31.7288 167.198 32.703 164.778 32.8221 163.994C32.7842 165.677 32.3296 166.786 32.3296 166.786C33.2226 165.607 33.2172 162.603 33.2172 162.603C33.2172 162.603 33.5582 163.409 33.2875 165.054C33.7584 163.869 33.7422 161.764 33.5257 160.611C33.8288 160.957 34.0236 162.494 34.0236 162.494C34.1535 161.174 33.9316 159.523 33.4553 158.598C33.8288 158.966 34.3916 160.313 34.3916 160.313L34.3971 160.319Z" fill="#BED5AE"/>
<path d="M12.3041 153.689C13.2188 152.585 14.3879 151.665 15.4378 151.264C14.7451 151.199 13.8412 151.773 13.8412 151.773C13.8412 151.773 15.5948 150.317 17.278 150.068C16.8396 149.841 15.6651 150.231 15.6651 150.231C15.6651 150.231 17.4566 149.245 18.9125 149.294C18.4849 148.969 16.818 149.175 16.818 149.175C16.818 149.175 19.5349 148.428 20.6552 148.704C20.2439 148.212 18.4416 148.228 18.4416 148.228C18.4416 148.228 20.4929 147.763 22.0137 148.39C21.5916 147.936 19.995 147.73 19.995 147.73C19.995 147.73 21.3751 147.443 23.4967 148.12C22.95 147.654 21.6836 147.432 21.6836 147.432C21.6836 147.432 24.1678 147.34 25.7969 148.233C25.7969 148.233 24.9526 149.895 23.3938 151.107C24.0433 150.29 24.8227 149.164 24.8227 149.164C22.5441 151.735 21.4021 152.482 21.4021 152.482C22.4359 151.405 23.3938 150.236 23.3938 150.236C20.298 153.294 19.5999 154.441 19.5457 154.544C19.8055 153.651 21.6295 151.437 21.689 151.394C20.3955 152.525 19.2968 154.122 18.9504 154.652C18.9233 153.987 20.2277 152.341 20.2277 152.341C18.7934 154.019 18.236 154.463 17.8192 155.599C17.738 154.993 18.6365 153.37 18.6365 153.364C17.4837 154.701 16.8125 156.222 16.6664 156.628C16.6664 155.951 16.9641 155.118 17.4566 154.133C16.504 155.096 15.8979 156.633 15.768 157.229C15.611 156.909 15.768 155.794 16.3417 154.885C15.3945 155.903 14.8695 157.066 14.6639 157.813C14.5394 157.537 14.8425 156.411 15.2538 155.67C14.5502 156.514 13.9873 157.429 13.733 158.192C13.6464 157.938 14.2309 156.498 14.2309 156.498C13.1971 157.975 12.9427 159.031 12.9049 159.166C12.8724 158.587 13.3325 157.391 13.3325 157.391C13.3325 157.391 12.3582 158.993 12.158 160.216C11.9415 159.908 12.2229 158.782 12.2229 158.782C12.2229 158.782 11.3137 160.471 11.1134 161.51C10.9456 160.936 11.3894 158.365 11.7034 157.635C10.8536 159.09 10.6534 160.27 10.6534 160.27C10.5127 158.798 12.0984 156.244 12.0984 156.244C12.0984 156.244 11.384 156.752 10.7508 158.289C10.9727 157.034 12.093 155.248 12.8832 154.382C12.4394 154.517 11.4706 155.724 11.4706 155.724C12.0552 154.533 13.1105 153.245 14.0036 152.704C13.4894 152.823 12.3041 153.673 12.3041 153.673V153.689Z" fill="#BED5AE"/>
<path d="M11.8183 144.179C13.2201 143.882 14.7085 143.892 15.7801 144.233C15.2767 143.752 14.2105 143.638 14.2105 143.638C14.2105 143.638 16.4891 143.589 17.9612 144.439C17.761 143.99 16.5973 143.562 16.5973 143.562C16.5973 143.562 18.6161 143.909 19.7202 144.85C19.5849 144.331 18.1561 143.454 18.1561 143.454C18.1561 143.454 20.7486 144.564 21.4522 145.473C21.4359 144.834 20.0179 143.725 20.0179 143.725C20.0179 143.725 21.9122 144.634 22.7132 146.074C22.6699 145.457 21.5387 144.298 21.5387 144.298C21.5387 144.298 22.7998 144.932 24.0392 146.783C23.8985 146.079 23.0488 145.116 23.0488 145.116C23.0488 145.116 25.0513 146.588 25.7711 148.304C25.7711 148.304 24.0771 149.077 22.1016 149.056C23.1192 148.818 24.4289 148.423 24.4289 148.423C21.0462 149.018 19.6878 148.888 19.6878 148.888C21.1653 148.682 22.6429 148.368 22.6429 148.368C18.3185 148.834 17.0574 149.299 16.9492 149.343C17.7123 148.801 20.5158 148.206 20.5862 148.211C18.8705 148.287 17.0141 148.856 16.4133 149.061C16.8084 148.525 18.8489 148.049 18.8489 148.049C16.684 148.471 15.9641 148.471 14.9304 149.099C15.2443 148.574 16.96 147.86 16.96 147.86C15.2226 148.19 13.7505 148.958 13.3879 149.191C13.8046 148.661 14.5569 148.19 15.5582 147.73C14.216 147.892 12.7817 148.715 12.3108 149.105C12.3866 148.758 13.2039 147.984 14.216 147.627C12.8412 147.833 11.7101 148.417 11.0823 148.877C11.158 148.585 12.0943 147.892 12.8791 147.567C11.8021 147.789 10.79 148.152 10.1189 148.596C10.2109 148.341 11.5585 147.578 11.5585 147.578C9.832 148.092 8.97146 148.764 8.86322 148.845C9.19878 148.374 10.3029 147.724 10.3029 147.724C10.3029 147.724 8.5439 148.374 7.62922 149.207C7.65087 148.828 8.57095 148.125 8.57095 148.125C8.57095 148.125 6.80655 148.883 6.00012 149.57C6.22203 149.018 8.17585 147.281 8.87404 146.902C7.29907 147.513 6.41146 148.314 6.41146 148.314C7.21789 147.075 10.0485 146.063 10.0485 146.063C10.0485 146.063 9.17713 146.014 7.71582 146.826C8.66838 145.982 10.6601 145.283 11.8183 145.094C11.3853 144.926 9.87531 145.262 9.87531 145.262C11.0768 144.694 12.7059 144.342 13.7343 144.472C13.258 144.244 11.8021 144.174 11.8021 144.174L11.8183 144.179Z" fill="#BED5AE"/>
<path d="M20.1371 134.67C21.2412 135.585 22.1613 136.754 22.5618 137.804C22.6268 137.111 22.0531 136.207 22.0531 136.207C22.0531 136.207 23.509 137.961 23.758 139.644C23.9853 139.205 23.5956 138.031 23.5956 138.031C23.5956 138.031 24.5806 139.828 24.5265 141.278C24.8512 140.851 24.6455 139.184 24.6455 139.184C24.6455 139.184 25.3924 141.901 25.1164 143.021C25.6089 142.61 25.5927 140.807 25.5927 140.807C25.5927 140.807 26.0582 142.859 25.4303 144.38C25.885 143.957 26.0906 142.361 26.0906 142.361C26.0906 142.361 26.3775 143.741 25.7009 145.862C26.1664 145.316 26.3883 144.049 26.3883 144.049C26.3883 144.049 26.4803 146.534 25.5873 148.163C25.5873 148.163 23.9257 147.318 22.7134 145.76C23.5306 146.409 24.6564 147.189 24.6564 147.189C22.0856 144.91 21.3441 143.768 21.3441 143.768C22.4211 144.802 23.5902 145.76 23.5902 145.76C20.5322 142.664 19.3848 141.96 19.2874 141.912C20.1804 142.171 22.3941 143.995 22.4319 144.055C21.3008 142.761 19.7041 141.663 19.1737 141.316C19.8395 141.289 21.4848 142.593 21.4848 142.593C19.807 141.159 19.3632 140.596 18.2266 140.18C18.8328 140.098 20.4565 140.997 20.4619 140.997C19.125 139.844 17.6042 139.173 17.1983 139.027C17.8748 139.027 18.7083 139.324 19.6933 139.817C18.73 138.864 17.1928 138.253 16.5975 138.128C16.9168 137.971 18.0318 138.128 18.941 138.702C17.9235 137.755 16.7599 137.23 16.013 137.024C16.289 136.9 17.4148 137.203 18.1562 137.614C17.3119 136.911 16.3973 136.348 15.6341 136.093C15.8885 136.007 17.3282 136.591 17.3282 136.591C15.8506 135.558 14.7952 135.303 14.6599 135.265C15.239 135.233 16.4351 135.693 16.4351 135.693C16.4351 135.693 14.8331 134.719 13.6099 134.518C13.9184 134.302 15.0442 134.583 15.0442 134.583C15.0442 134.583 13.3556 133.674 12.3164 133.468C12.8901 133.301 15.4609 133.744 16.1916 134.058C14.7357 133.209 13.5558 133.008 13.5558 133.008C15.0279 132.868 17.5825 134.453 17.5825 134.453C17.5825 134.453 17.0738 133.739 15.5367 133.106C16.7924 133.328 18.5784 134.448 19.4444 135.238C19.3091 134.794 18.1021 133.826 18.1021 133.826C19.2928 134.41 20.581 135.471 21.1222 136.359C21.0031 135.844 20.1534 134.659 20.1534 134.659L20.1371 134.67Z" fill="#BED5AE"/>
<path d="M31.2968 134.794C30.171 135.682 29.2293 136.835 28.8071 137.879C28.7584 137.186 29.3483 136.293 29.3483 136.293C29.3483 136.293 27.8546 138.014 27.5677 139.692C27.3512 139.254 27.768 138.085 27.768 138.085C27.768 138.085 26.7451 139.86 26.7667 141.31C26.4528 140.877 26.6909 139.211 26.6909 139.211C26.6909 139.211 25.8899 141.911 26.1389 143.037C25.6572 142.615 25.7113 140.813 25.7113 140.813C25.7113 140.813 25.2025 142.853 25.7979 144.39C25.3541 143.962 25.1809 142.355 25.1809 142.355C25.1809 142.355 24.867 143.73 25.4948 145.868C25.0402 145.31 24.8453 144.044 24.8453 144.044C24.8453 144.044 24.6992 146.522 25.5598 148.173C25.5598 148.173 27.2376 147.361 28.4824 145.835C27.6489 146.468 26.5123 147.221 26.5123 147.221C29.1319 145.002 29.9004 143.876 29.9004 143.876C28.8017 144.883 27.611 145.819 27.611 145.819C30.7339 142.788 31.8975 142.112 32.0004 142.063C31.1019 142.301 28.845 144.082 28.8071 144.136C29.9653 142.864 31.5836 141.803 32.1248 141.467C31.4591 141.43 29.7867 142.696 29.7867 142.696C31.497 141.3 31.9516 140.748 33.099 140.358C32.4929 140.266 30.8476 141.126 30.8476 141.126C32.2114 140.006 33.7431 139.362 34.1544 139.227C33.4779 139.205 32.639 139.492 31.6431 139.963C32.6282 139.032 34.1761 138.458 34.7769 138.345C34.463 138.182 33.3426 138.317 32.4225 138.864C33.4617 137.939 34.6362 137.441 35.3885 137.251C35.1124 137.121 33.9812 137.403 33.2344 137.798C34.0949 137.111 35.0204 136.569 35.789 136.331C35.54 136.239 34.0895 136.791 34.0895 136.791C35.5887 135.79 36.6495 135.557 36.7848 135.525C36.2057 135.481 35.0042 135.914 35.0042 135.914C35.0042 135.914 36.6279 134.978 37.851 134.805C37.5479 134.583 36.4168 134.837 36.4114 134.837C36.4114 134.837 38.1216 133.966 39.1662 133.782C38.5979 133.598 36.0163 133.993 35.2802 134.285C36.7523 133.463 37.9376 133.295 37.9376 133.295C36.4655 133.122 33.8784 134.653 33.8784 134.653C33.8784 134.653 34.398 133.95 35.9567 133.349C34.6957 133.544 32.888 134.626 32.0058 135.4C32.1519 134.962 33.3751 134.015 33.3751 134.015C32.1681 134.572 30.8584 135.606 30.3009 136.483C30.4308 135.974 31.3076 134.805 31.3076 134.805L31.2968 134.794Z" fill="#BED5AE"/>
<path d="M39.4958 144.477C38.0994 144.147 36.6165 144.125 35.534 144.444C36.0482 143.973 37.1144 143.881 37.1144 143.881C37.1144 143.881 34.8358 143.784 33.3475 144.601C33.5585 144.157 34.7276 143.757 34.7276 143.757C34.7276 143.757 32.7034 144.06 31.5776 144.98C31.7238 144.466 33.1743 143.616 33.1743 143.616C33.1743 143.616 30.5601 144.666 29.8349 145.565C29.8674 144.926 31.307 143.844 31.307 143.844C31.307 143.844 29.3911 144.715 28.5576 146.133C28.6171 145.516 29.77 144.385 29.77 144.385C29.77 144.385 28.4981 144.991 27.2153 146.815C27.3723 146.111 28.2383 145.17 28.2383 145.17C28.2383 145.17 26.2033 146.598 25.4456 148.298C25.4456 148.298 27.1234 149.11 29.0988 149.131C28.0867 148.872 26.7878 148.449 26.7878 148.449C30.1542 149.12 31.5181 149.018 31.5181 149.018C30.046 148.785 28.5738 148.433 28.5738 148.433C32.8874 148.996 34.1377 149.483 34.2459 149.532C33.499 148.974 30.7063 148.319 30.6359 148.325C32.3516 148.439 34.1918 149.05 34.7871 149.261C34.4029 148.72 32.3733 148.195 32.3733 148.195C34.5328 148.66 35.2472 148.677 36.2647 149.332C35.9616 148.801 34.2621 148.049 34.2621 148.049C35.9886 148.417 37.4445 149.218 37.8017 149.456C37.3958 148.915 36.6544 148.433 35.6639 147.946C37.0062 148.141 38.4188 148.991 38.8788 149.391C38.8085 149.045 38.0128 148.249 37.0062 147.87C38.3755 148.108 39.4958 148.715 40.1128 149.185C40.0424 148.888 39.1223 148.179 38.343 147.838C39.4146 148.087 40.4159 148.471 41.0816 148.926C40.995 148.671 39.6636 147.881 39.6636 147.881C41.3793 148.433 42.2236 149.12 42.3318 149.207C42.0071 148.725 40.9192 148.054 40.9192 148.054C40.9192 148.054 42.662 148.742 43.5604 149.591C43.5442 149.213 42.6403 148.487 42.6403 148.487C42.6403 148.487 44.3885 149.283 45.1787 149.986C44.9676 149.429 43.0571 147.654 42.3643 147.259C43.9231 147.903 44.7944 148.72 44.7944 148.72C44.0151 147.459 41.2061 146.387 41.2061 146.387C41.2061 146.387 42.0774 146.36 43.5225 147.199C42.5862 146.333 40.6107 145.592 39.4579 145.381C39.8909 145.224 41.3955 145.592 41.3955 145.592C40.2102 144.996 38.5865 144.612 37.5528 144.72C38.0345 144.504 39.4904 144.466 39.4904 144.466L39.4958 144.477Z" fill="#BED5AE"/>
<path d="M38.6955 153.975C37.8079 152.85 36.6551 151.908 35.6159 151.486C36.3087 151.437 37.2017 152.027 37.2017 152.027C37.2017 152.027 35.4806 150.533 33.8028 150.246C34.2412 150.03 35.4103 150.447 35.4103 150.447C35.4103 150.447 33.6404 149.424 32.1845 149.445C32.6175 149.131 34.2845 149.37 34.2845 149.37C34.2845 149.37 31.5838 148.569 30.4581 148.818C30.8802 148.336 32.6825 148.39 32.6825 148.39C32.6825 148.39 30.6421 147.881 29.105 148.477C29.5326 148.033 31.14 147.86 31.14 147.86C31.14 147.86 29.7653 147.546 27.6274 148.174C28.1849 147.719 29.4514 147.524 29.4514 147.524C29.4514 147.524 26.9726 147.378 25.3164 148.238C25.3164 148.238 26.1228 149.916 27.6545 151.161C27.0212 150.328 26.2689 149.191 26.2689 149.191C28.488 151.811 29.6137 152.579 29.6137 152.579C28.607 151.475 27.6707 150.29 27.6707 150.29C30.7016 153.413 31.3727 154.576 31.4268 154.679C31.1887 153.781 29.4081 151.524 29.3539 151.486C30.6258 152.644 31.6866 154.262 32.0168 154.804C32.0547 154.138 30.7882 152.465 30.7882 152.465C32.1846 154.176 32.7366 154.63 33.1263 155.778C33.2183 155.172 32.3577 153.526 32.3577 153.526C33.4781 154.89 34.1221 156.422 34.252 156.833C34.2737 156.157 33.9868 155.318 33.516 154.322C34.4469 155.307 35.0206 156.855 35.1342 157.456C35.2966 157.142 35.1667 156.021 34.6147 155.101C35.5402 156.14 36.0381 157.315 36.2275 158.067C36.3574 157.791 36.076 156.66 35.6809 155.913C36.3682 156.774 36.9095 157.699 37.1476 158.468C37.2396 158.219 36.6876 156.768 36.6876 156.768C37.6888 158.267 37.9216 159.328 37.954 159.464C37.9973 158.884 37.5643 157.683 37.5643 157.683C37.5643 157.683 38.5007 159.307 38.6739 160.53C38.8958 160.227 38.6414 159.095 38.6414 159.09C38.6414 159.09 39.5128 160.8 39.6914 161.845C39.8754 161.277 39.4803 158.695 39.188 157.959C40.0107 159.431 40.1785 160.616 40.1785 160.616C40.3517 159.144 38.82 156.557 38.82 156.557C38.82 156.557 39.5236 157.077 40.1244 158.635C39.9295 157.374 38.8471 155.567 38.0785 154.684C38.5169 154.831 39.4641 156.054 39.4641 156.054C38.9066 154.847 37.8783 153.537 36.9961 152.98C37.5048 153.109 38.6739 153.986 38.6739 153.986L38.6955 153.975Z" fill="#BED5AE"/>
<defs>
<linearGradient id="paint0_linear_714_38067" x1="188" y1="94.9998" x2="188" y2="225" gradientUnits="userSpaceOnUse">
<stop stop-color="#E2F5D4"/>
<stop offset="1" stop-color="#E2F5D4" stop-opacity="0"/>
</linearGradient>
<linearGradient id="paint1_linear_714_38067" x1="188" y1="138" x2="188" y2="346.5" gradientUnits="userSpaceOnUse">
<stop stop-color="#D2E9C2"/>
<stop offset="1" stop-color="#D2E9C2" stop-opacity="0"/>
</linearGradient>
</defs>
</svg>
