<svg width="18" height="18" viewBox="0 0 18 18" fill="none" xmlns="http://www.w3.org/2000/svg">
<path d="M13.5 12.5627C13.38 12.5627 13.2675 12.5252 13.1625 12.4502C12.915 12.2627 12.8625 11.9102 13.05 11.6627C14.2275 10.0952 14.2275 7.9052 13.05 6.3377C12.8625 6.0902 12.915 5.7377 13.1625 5.5502C13.41 5.3627 13.7625 5.4152 13.95 5.6627C15.42 7.6277 15.42 10.3727 13.95 12.3377C13.8375 12.4877 13.6725 12.5627 13.5 12.5627Z" fill="#698754"/>
<path d="M14.8725 14.4377C14.7525 14.4377 14.64 14.4002 14.535 14.3252C14.2875 14.1377 14.235 13.7852 14.4225 13.5377C16.425 10.8677 16.425 7.1327 14.4225 4.4627C14.235 4.2152 14.2875 3.8627 14.535 3.6752C14.7825 3.4877 15.135 3.5402 15.3225 3.7877C17.625 6.8552 17.625 11.1452 15.3225 14.2127C15.2175 14.3627 15.045 14.4377 14.8725 14.4377Z" fill="#698754"/>
<path opacity="0.4" d="M11.8125 5.55729V12.4423C11.8125 13.7323 11.3475 14.6998 10.515 15.1648C10.1775 15.3523 9.8025 15.4423 9.4125 15.4423C8.8125 15.4423 8.1675 15.2398 7.5075 14.8273L5.3175 13.4548C5.1675 13.3648 4.995 13.3123 4.8225 13.3123H4.125V4.68729H4.8225C4.995 4.68729 5.1675 4.63479 5.3175 4.54479L7.5075 3.17229C8.6025 2.48979 9.675 2.36979 10.515 2.83479C11.3475 3.29979 11.8125 4.26729 11.8125 5.55729Z" fill="#698754"/>
<path d="M4.125 4.6875V13.3125H3.75C1.935 13.3125 0.9375 12.315 0.9375 10.5V7.5C0.9375 5.685 1.935 4.6875 3.75 4.6875H4.125Z" fill="#698754"/>
</svg>
