<svg width="18" height="18" viewBox="0 0 18 18" fill="none" xmlns="http://www.w3.org/2000/svg">
<path d="M13.5 12.5627C13.38 12.5627 13.2675 12.5252 13.1625 12.4502C12.915 12.2627 12.8625 11.9102 13.05 11.6627C13.995 10.4027 14.1975 8.73024 13.59 7.28274C13.47 6.99774 13.605 6.66774 13.89 6.54774C14.175 6.42774 14.505 6.56274 14.625 6.84774C15.39 8.66274 15.1275 10.7702 13.95 12.3452C13.8375 12.4877 13.6725 12.5627 13.5 12.5627Z" fill="#698754"/>
<path d="M14.8725 14.4374C14.7525 14.4374 14.64 14.3999 14.535 14.3249C14.2875 14.1374 14.235 13.7849 14.4225 13.5374C16.0275 11.3999 16.38 8.5349 15.345 6.06741C15.225 5.78241 15.36 5.45241 15.645 5.33241C15.93 5.21241 16.26 5.34741 16.38 5.63241C17.5725 8.46741 17.1675 11.7524 15.3225 14.2124C15.2175 14.3624 15.045 14.4374 14.8725 14.4374Z" fill="#698754"/>
<path opacity="0.4" d="M10.53 9.72002C11.0025 9.24752 11.8125 9.58502 11.8125 10.2525V12.45C11.8125 13.74 11.3475 14.7075 10.515 15.1725C10.1775 15.36 9.80249 15.45 9.41249 15.45C8.81249 15.45 8.16749 15.2475 7.50749 14.835L7.02749 14.535C6.62249 14.28 6.55499 13.71 6.89249 13.3725L10.53 9.72002Z" fill="#698754"/>
<path opacity="0.4" d="M10.515 2.83479C9.675 2.36979 8.6025 2.48979 7.5075 3.17229L5.3175 4.54479C5.1675 4.63479 4.995 4.68729 4.8225 4.68729H4.125H3.75C1.935 4.68729 0.9375 5.68479 0.9375 7.49979V10.4998C0.9375 12.3148 1.935 13.3123 3.75 13.3123H4.125H4.6875L11.8125 6.18729V5.55729C11.8125 4.26729 11.3475 3.29979 10.515 2.83479Z" fill="#698754"/>
<path d="M16.3275 1.67266C16.1025 1.44766 15.735 1.44766 15.51 1.67266L1.67247 15.5177C1.44747 15.7427 1.44747 16.1102 1.67247 16.3352C1.78497 16.4402 1.92747 16.5002 2.07747 16.5002C2.22747 16.5002 2.36997 16.4402 2.48247 16.3277L16.3275 2.48266C16.56 2.25766 16.56 1.89766 16.3275 1.67266Z" fill="#698754"/>
</svg>
